/* XPM */
static char *result[] = {
/* columns rows colors chars-per-pixel */
"50 50 172 2 ",
"   c #14182E",
".  c #15192E",
"X  c #15192F",
"o  c #17192F",
"O  c #161A30",
"+  c #1F1930",
"@  c #191D34",
"#  c #1B1F35",
"$  c #1B1F36",
"%  c #251B31",
"&  c #2E1C32",
"*  c #1C2036",
"=  c #1F2338",
"-  c #1D223A",
";  c #24283F",
":  c #272A3F",
">  c #582238",
",  c #252942",
"<  c #272B42",
"1  c #272B46",
"2  c #2B2E43",
"3  c #292D44",
"4  c #2B2F45",
"5  c #2B2F46",
"6  c #2C2F44",
"7  c #2A2E48",
"8  c #2C3047",
"9  c #33374D",
"0  c #32364E",
"q  c #33374E",
"w  c #36394D",
"e  c #34384F",
"r  c #3A3D50",
"t  c #3B3E51",
"y  c #3B3F56",
"u  c #393F5D",
"i  c #3F4254",
"p  c #3F4255",
"a  c #3C4057",
"s  c #3F4359",
"d  c #3E425A",
"f  c #3F4463",
"g  c #404356",
"h  c #414557",
"j  c #42465E",
"k  c #44485F",
"l  c #464A61",
"z  c #4B4E60",
"x  c #4B4F66",
"c  c #43486A",
"v  c #464C6C",
"b  c #4B4F6A",
"n  c #4C5062",
"m  c #4E5263",
"M  c #4D5065",
"N  c #4E526C",
"B  c #51556C",
"V  c #55586A",
"C  c #585B6C",
"Z  c #535770",
"A  c #515674",
"S  c #555971",
"D  c #51577B",
"F  c #5F6273",
"G  c #5C6078",
"H  c #6D667D",
"J  c #676A7A",
"K  c #65687C",
"L  c #6A6C79",
"P  c #6A6D7F",
"I  c #AD2E45",
"U  c #636780",
"Y  c #646880",
"T  c #676B87",
"R  c #6B6F85",
"E  c #6E7181",
"W  c #6D728F",
"Q  c #747786",
"!  c #74778B",
"~  c #72768F",
"^  c #797C8B",
"/  c #7A7C8B",
"(  c #686F99",
")  c #6B729B",
"_  c #6F759E",
"`  c #737791",
"'  c #727692",
"]  c #747891",
"[  c #777B91",
"{  c #797D93",
"}  c #7B7F97",
"|  c #7D7D94",
" . c #7B7F99",
".. c #757BA2",
"X. c #757CA2",
"o. c #7F8190",
"O. c #7F8191",
"+. c #7E829C",
"@. c #7E83A1",
"#. c #7C82A7",
"$. c #818493",
"%. c #848690",
"&. c #858795",
"*. c #848797",
"=. c #888B99",
"-. c #888B9A",
";. c #8C8F9C",
":. c #9C8C9F",
">. c #93949D",
",. c #8387A1",
"<. c #868AA6",
"1. c #8288AB",
"2. c #8388AB",
"3. c #868BAE",
"4. c #8B8FA9",
"5. c #9194A3",
"6. c #9496A3",
"7. c #9295AC",
"8. c #9B9DAA",
"9. c #9A9DAE",
"0. c #8F94B4",
"q. c #9095B4",
"w. c #9297B7",
"e. c #9397B7",
"r. c #969AB9",
"t. c #9B9FBA",
"y. c #9A9EBB",
"u. c #AF9DB3",
"i. c #9CA1BD",
"p. c #A2A4AB",
"a. c #A7A8B4",
"s. c #A5A7B8",
"d. c #B2B3BF",
"f. c #C68797",
"g. c #CEA5B2",
"h. c #A3A7C1",
"j. c #A3A7C2",
"k. c #A4A8C1",
"l. c #A7ABC3",
"z. c #A8ABC2",
"x. c #AAAEC6",
"c. c #ADB1C8",
"v. c #B0B4CA",
"b. c #B0B4CB",
"n. c #B7BACE",
"m. c #B7BACF",
"M. c #BDBFC9",
"N. c #B9BCCE",
"B. c #BABED0",
"V. c #BDC0D3",
"C. c #BEC0D3",
"Z. c #BEC1D3",
"A. c #C5C7D2",
"S. c #C1C4D5",
"D. c #C5C7D6",
"F. c #C4C7D7",
"G. c #C5C8D7",
"H. c #C8CAD3",
"J. c #C7CAD9",
"K. c #CBCDDB",
"L. c #CDCFDA",
"P. c #D0D2DF",
"I. c #D2D3DF",
"U. c #D4D5DE",
"Y. c #D3D5E0",
"T. c #D5D6E1",
"R. c #D7D9E3",
"E. c #D8DAE4",
"W. c #DBDCE6",
"Q. c #DDDFE7",
"!. c #DFE0E8",
"~. c None",
/* pixels */
"~.~.~.~.~.~.~.~.~.~.~.~.~.~.~.~.~.~.~.~.~.~.~.~.~.~.~.~.~.~.~.~.~.~.~.~.~.~.~.~.~.~.~.~.~.~.~.~.~.~.",
"~.~.~.~.~.~.~.~.~.~.~.~.~.~.~.~.~.~.~.~.~.~.~.~.~.~.~.~.~.~.~.~.~.~.~.~.~.~.~.~.~.~.~.~.~.~.~.~.~.~.",
"~.~.~.~.~.~.~.~.~.~.~.~.~.~.~.~.~.~.~.~.~.~.~.~.~.~.~.~.~.~.~.~.~.~.~.~.~.~.~.~.~.~.~.~.~.~.~.~.~.~.",
"~.~.~.~.~.~.~.~.~.~.~.~.~.~.~.~.~.~.~.~.~.~.~.~.~.~.~.~.~.~.~.~.~.~.~.~.~.~.~.~.~.~.~.~.~.~.~.~.~.~.",
"~.~.~.~.~.~.~.~.~.~.~.~.~.~.~.~.~.                                ~.~.~.~.~.~.~.~.~.~.~.~.~.~.~.~.~.",
"~.~.~.~.~.~.~.~.~.~.~.~.~.~.~.~.~.                                ~.~.~.~.~.~.~.~.~.~.~.~.~.~.~.~.~.",
"~.~.~.~.~.~.~.~.~.~.~.~.~.~.~.>.p.k k l C C C C C C C C C C M k k ~.~.~.~.~.~.~.~.~.~.~.~.~.~.~.~.~.",
"~.~.~.~.~.~.~.~.~.~.~.~.~.~.L     j.j.x.!.!.!.!.!.!.!.!.!.!.C.j.j.e     ~.~.~.~.~.~.~.~.~.~.~.~.~.~.",
"~.~.~.~.~.~.~.~.~.~.~.~.~.~.%.    j.j.x.!.!.!.!.!.!.!.!.!.!.C.j.j.e     ~.~.~.~.~.~.~.~.~.~.~.~.~.~.",
"~.~.~.~.~.~.~.~.~.~.~.~.  i P U U F.F.J.!.!.!.!.!.!.!.!.!.!.P.F.F.{ U S $   ~.~.~.~.~.~.~.~.~.~.~.~.",
"~.~.~.~.~.~.~.~.~.~.~.~.    Z j.j.!.!.!.!.!.!.!.!.!.!.!.!.!.!.!.!.b.j. .*     ~.~.~.~.~.~.~.~.~.~.~.",
"~.~.~.~.~.~.~.~.~.~.~.~.    Z j.j.!.!.!.!.!.!.!.!.!.!.!.!.!.!.!.!.b.j. .*     ~.~.~.~.~.~.~.~.~.~.~.",
"~.~.~.~.~.~.~.~.~.~.~.~.    Z j.j.!.!.!.!.!.!.!.!.!.!.!.!.!.!.!.!.b.j. .*     ~.~.~.~.~.~.~.~.~.~.~.",
"~.~.~.~.~.~.~.~.~.~.~.~.    Z j.j.!.!.!.!.!.!.!.!.!.!.!.!.!.!.!.!.b.j. .*     ~.~.~.~.~.~.~.~.~.~.~.",
"~.~.~.~.~.~.~.~.~.~.~.~.    N r.r.I.I.Y.!.!.!.!.!.!.!.!.!.!.R.I.I.h.r.' $     ~.~.~.~.~.~.~.~.~.~.~.",
"~.~.~.~.~.~.~.~.~.~.~.~.    u ( ( j.j.x.!.!.!.!.!.!.!.!.!.!.C.j.j.X.( D @     ~.~.~.~.~.~.~.~.~.~.~.",
"~.~.~.~.~.~.~.~.~.~.~.~.    u ( ( j.j.x.!.!.!.!.!.!.!.!.!.!.C.j.j.X.( D @     ~.~.~.~.~.~.~.~.~.~.~.",
"~.~.~.~.~.~.~.~.~.~.~.~.    b 0.0.k k B m.m.K.!.!.!.!.!.m.m.[ k k @.0.W #     ~.~.~.~.~.~.~.~.~.~.~.",
"~.~.~.~.~.~.~.~.~.~.~.~.    Z j.j.    ; j.j.S.!.!.!.!.!.j.j.Z     ,.j. .*     ~.~.~.~.~.~.~.~.~.~.~.",
"~.~.~.~.~.~.~.~.~.~.~.~.    Z j.j.    ; j.j.S.!.!.!.!.!.j.j.Z     ,.j. .*     ~.~.~.~.~.~.~.~.~.~.~.",
"~.~.~.~.~.~.~.~.~.~.~.~.    Z j.j.          G j.j.j.j.j.          ,.j. .*     ~.~.~.~.~.~.~.~.~.~.~.",
"~.~.~.~.~.~.~.~.~.~.~.~.    Z j.j.          G j.j.j.j.j.          ,.j. .*     ~.~.~.~.~.~.~.~.~.~.~.",
"~.~.~.~.~.~.~.~.~.~.~.~.    Z j.j.    o & & H c.c.c.c.c.& & +     ,.j. .*     ~.~.~.~.~.~.~.~.~.~.~.",
"~.~.~.~.~.~.~.~.~.~.~.~.    Z j.j.    % I I f.!.!.!.!.!.I I >     ,.j. .*     ~.~.~.~.~.~.~.~.~.~.~.",
"~.~.~.~.~.~.~.~.~.~.~.~.    Z j.j.    % I I f.!.!.!.!.!.I I >     ,.j. .*     ~.~.~.~.~.~.~.~.~.~.~.",
"~.~.~.~.~.~.~.~.~.~.~.~.~.~.q k j ~ ] | g.g.u.q.q.q.q.q.g.g.:.] ` x k d ~.~.~.~.~.~.~.~.~.~.~.~.~.~.",
"~.~.~.~.~.~.~.~.~.~.~.~.~.~.~.    j.j.x.!.!.k.( ( ( ( ( !.!.C.j.j.e     ~.~.~.~.~.~.~.~.~.~.~.~.~.~.",
"~.~.~.~.~.~.~.~.~.~.~.~.~.~.~.    j.j.x.!.!.k.( ( ( ( ( !.!.V.j.j.e     ~.~.~.~.~.~.~.~.~.~.~.~.~.~.",
"~.~.~.~.~.~.~.~.~.~.~.~.          E.E.A.2 2 O.I.I.I.I.I.2 2 -.E.E.g         ~.~.~.~.~.~.~.~.~.~.~.~.",
"~.~.~.~.~.~.~.~.~.~.~.~.          !.!.H.    / !.!.!.!.!.    &.!.!.h           ~.~.~.~.~.~.~.~.~.~.~.",
"~.~.~.~.~.~.~.~.~.~.~.~.V C C C C 8.8.;.    C 8.8.8.8.8.    F 8.8.J C C C C m ~.~.~.~.~.~.~.~.~.~.~.",
"~.~.~.~.~.~.~.~.~.    t !.!.!.!.!.                                d.!.!.!.!.&.    ~.~.~.~.~.~.~.~.~.",
"~.~.~.~.~.~.~.~.~.    h !.!.!.!.!.                                d.!.!.!.!.&.  O ~.~.~.~.~.~.~.~.~.",
"~.~.~.~.~.~.~.X : Q &.5.C.C.9.E E c c v Y Y ! &.&.&.&.&.Y Y A c c K E *.N.C.s.&.o.p . ~.~.~.~.~.~.~.",
"~.~.~.~.~.~.    = a.!.I.j.j.Y     ( ( _ j.j.S.!.!.!.!.!.j.j.1.( ( 1   a t.j.Z.!.M.w     ~.~.~.~.~.~.",
"~.~.~.~.~.~.    = a.!.T.v.v.R     ....#.v.v.B.D.D.D.D.D.v.v.0.....7   s z.v.G.!.M.w     ~.~.~.~.~.~.",
"~.~.~.~.~.~.    = a.!.Q.E.E.$.    i.i.j.E.E.l.X.X.X.X.X.E.E.n.i.i.0   z L.E.W.!.M.w     ~.~.~.~.~.~.",
"~.~.~.~.~.~.    = a.!.!.!.!.&.    j.j.x.!.!.k.( ( ( ( ( !.!.C.j.j.e   n U.!.!.!.M.w     ~.~.~.~.~.~.",
"~.~.~.~.~.~.~.  * ^ 8.8.8.8.F     ` ` } n.n.y.#.#.#.#.#.n.n.7.` ` 3   r 6.8.8.8.=.6     ~.~.~.~.~.~.",
"~.~.~.~.~.~.~.~.~.                    - ( ( 3.j.j.j.j.j.( ( u                     ~.~.~.~.~.~.~.~.~.",
"~.~.~.~.~.~.~.~.~.                * * , ) ) 2.t.t.t.t.t.) ) f * * O               ~.~.~.~.~.~.~.~.~.",
"~.~.~.~.~.~.~.~.~.~.~.~.~.~.       . .+.e.e.T a a a a y w.e.<. . .5     ~.~.~.~.~.~.~.~.~.~.~.~.~.~.",
"~.~.~.~.~.~.~.~.~.~.~.~.~.~.~.    j.j.j.j.j.G           j.j.j.j.j.e     ~.~.~.~.~.~.~.~.~.~.~.~.~.~.",
"~.~.~.~.~.~.~.~.~.~.~.~.~.~.~.    4.4.4.4.4.S           4.4.4.4.4.9     ~.~.~.~.~.~.~.~.~.~.~.~.~.~.",
"~.~.~.~.~.~.~.~.~.~.~.~.~.~.~.~.~.4 8 8 8 8 < ~.~.~.~.~.5 8 8 8 8 ~.~.~.~.~.~.~.~.~.~.~.~.~.~.~.~.~.",
"~.~.~.~.~.~.~.~.~.~.~.~.~.~.~.~.~.          X ~.~.~.~.~.          ~.~.~.~.~.~.~.~.~.~.~.~.~.~.~.~.~.",
"~.~.~.~.~.~.~.~.~.~.~.~.~.~.~.~.~.~.~.~.~.~.~.~.~.~.~.~.~.~.~.~.~.~.~.~.~.~.~.~.~.~.~.~.~.~.~.~.~.~.",
"~.~.~.~.~.~.~.~.~.~.~.~.~.~.~.~.~.~.~.~.~.~.~.~.~.~.~.~.~.~.~.~.~.~.~.~.~.~.~.~.~.~.~.~.~.~.~.~.~.~.",
"~.~.~.~.~.~.~.~.~.~.~.~.~.~.~.~.~.~.~.~.~.~.~.~.~.~.~.~.~.~.~.~.~.~.~.~.~.~.~.~.~.~.~.~.~.~.~.~.~.~.",
"~.~.~.~.~.~.~.~.~.~.~.~.~.~.~.~.~.~.~.~.~.~.~.~.~.~.~.~.~.~.~.~.~.~.~.~.~.~.~.~.~.~.~.~.~.~.~.~.~.~."
};
