/* XPM */
static char *result[] = {
/* columns rows colors chars-per-pixel */
"50 50 163 2 ",
"   c #14182E",
".  c #15192E",
"X  c #15192F",
"o  c #1D192F",
"O  c #171A30",
"+  c #181C31",
"@  c #191D33",
"#  c #1B1F36",
"$  c #1C1F35",
"%  c #251B31",
"&  c #1C2036",
"*  c #1E2237",
"=  c #1F2338",
"-  c #1D223A",
";  c #23273B",
":  c #20243C",
">  c #21253C",
",  c #22263C",
"<  c #22263D",
"1  c #23273E",
"2  c #24283C",
"3  c #24283E",
"4  c #24283F",
"5  c #32293F",
"6  c #69243B",
"7  c #282C41",
"8  c #2B2E43",
"9  c #2C3047",
"0  c #35384C",
"q  c #36394D",
"w  c #34384F",
"e  c #303552",
"r  c #353950",
"t  c #363A50",
"y  c #373C56",
"u  c #3B3E51",
"i  c #3A3E55",
"p  c #3A3E56",
"a  c #3C4053",
"s  c #3D4054",
"d  c #3C4057",
"f  c #414457",
"g  c #414557",
"h  c #40445B",
"j  c #40445C",
"k  c #41455D",
"l  c #44485F",
"z  c #434969",
"x  c #43486A",
"c  c #514B62",
"v  c #4C5068",
"b  c #505365",
"n  c #545769",
"m  c #51556D",
"M  c #52566E",
"N  c #52566F",
"B  c #53576F",
"V  c #585B6C",
"C  c #535770",
"Z  c #575B72",
"A  c #5B5F77",
"S  c #5B5F78",
"D  c #5C6078",
"F  c #5D617A",
"G  c #AD2E45",
"H  c #AE3148",
"J  c #B13C52",
"K  c #BE697B",
"L  c #555C81",
"P  c #5D6382",
"I  c #636780",
"U  c #646880",
"Y  c #656980",
"T  c #6B6E81",
"R  c #656A8C",
"E  c #6E7080",
"W  c #6E7181",
"Q  c #6D7082",
"!  c #6E7287",
"~  c #6E738E",
"^  c #767888",
"/  c #76798C",
"(  c #686F99",
")  c #6F759E",
"_  c #737791",
"`  c #737792",
"'  c #747891",
"]  c #777A91",
"[  c #747893",
"{  c #7B7F98",
"}  c #7B7F99",
"|  c #797D9A",
" . c #787EA0",
".. c #797EA0",
"X. c #787EA3",
"o. c #787FA4",
"O. c #977689",
"+. c #7E808F",
"@. c #7D8091",
"#. c #7C82A7",
"$. c #808293",
"%. c #828492",
"&. c #818494",
"*. c #858795",
"=. c #8B8E9C",
"-. c #8387A1",
";. c #8488A2",
":. c #8B8FA9",
">. c #8E91A2",
",. c #9698A5",
"<. c #9A9CA9",
"1. c #9B9DAA",
"2. c #9C9DAA",
"3. c #9195B0",
"4. c #9397B1",
"5. c #9095B3",
"6. c #9397B2",
"7. c #9095B4",
"8. c #9094B5",
"9. c #969AB9",
"0. c #999EBB",
"q. c #9B9FBA",
"w. c #BB92A5",
"e. c #9DA0B2",
"r. c #9EA2BD",
"t. c #A7A8B4",
"y. c #A3A6B8",
"u. c #A4A7BA",
"i. c #ABADBE",
"p. c #B2B4BF",
"a. c #C58494",
"s. c #C68797",
"d. c #C28A9C",
"f. c #A0A4C0",
"g. c #A3A7C2",
"h. c #A4A8C1",
"j. c #A7ABC5",
"k. c #A9ACC0",
"l. c #AAAEC6",
"z. c #ADB1C8",
"x. c #B2B4C2",
"c. c #B5B7CA",
"v. c #B7B9C8",
"b. c #B7BACE",
"n. c #B7BACF",
"m. c #BDBFC9",
"M. c #BEC0D3",
"N. c #C4C7D7",
"B. c #C5C7D7",
"V. c #C8CAD3",
"C. c #CBCDDB",
"Z. c #CDCFDD",
"A. c #D0D2DF",
"S. c #D2D3DF",
"D. c #D2D4E0",
"F. c #D5D6E1",
"G. c #D5D6E2",
"H. c #D5D7E2",
"J. c #D8DAE4",
"K. c #D9DAE4",
"L. c #DDDEE7",
"P. c #DFE0E8",
"I. c None",
/* pixels */
"I.I.I.I.I.I.I.I.I.I.I.I.I.I.I.I.I.I.I.I.I.I.I.I.I.I.I.I.I.I.I.I.I.I.I.I.I.I.I.I.I.I.I.I.I.I.I.I.I.I.",
"I.I.I.I.I.I.I.I.I.I.I.I.I.I.I.I.I.I.I.I.I.I.I.I.I.I.I.I.I.I.I.I.I.I.I.I.I.I.I.I.I.I.I.I.I.I.I.I.I.I.",
"I.I.I.I.I.I.I.I.I.I.I.I.I.I.I.I.I.I.I.I.I.I.I.I.I.I.I.I.I.I.I.I.I.I.I.I.I.I.I.I.I.I.I.I.I.I.I.I.I.I.",
"I.I.I.I.I.I.I.I.I.I.I.I.I.I.I.I.I.I.I.I.I.I.I.I.I.I.I.I.I.I.I.I.I.I.I.I.I.I.I.I.I.I.I.I.I.I.I.I.I.I.",
"I.I.I.I.I.I.I.I.I.I.I.I.I.I.I.I.I.I.I.I.I.I.I.I.I.I.I.I.I.I.I.I.I.I.I.I.I.I.I.I.I.I.I.I.I.I.I.I.I.I.",
"I.I.I.I.I.I.I.I.I.I.I.I.I.I.I.I.I.I.I.I.I.I.I.I.I.I.I.I.I.I.I.I.I.I.I.I.I.I.I.I.I.I.I.I.I.I.I.I.I.I.",
"I.I.I.I.I.I.I.I.I.I.I.I.I.I.I.I.I.                                I.I.I.I.I.I.I.I.I.I.I.I.I.I.I.I.I.",
"I.I.I.I.I.I.I.I.I.I.I.I.I.I.I.I.I.                                I.I.I.I.I.I.I.I.I.I.I.I.I.I.I.I.I.",
"I.I.I.I.I.I.I.I.I.I.I.I.I.I.I.I.I.1 3 3 8 8 8 8 8 8 8 8 8 8 7 3 3 I.I.I.I.I.I.I.I.I.I.I.I.I.I.I.I.I.",
"I.I.I.I.I.I.I.I.I.I.I.I.I.I.I.    ' -.-.p.p.p.p.p.p.p.p.p.p.e.-.-.h     I.I.I.I.I.I.I.I.I.I.I.I.I.I.",
"I.I.I.I.I.I.I.I.I.I.I.I.I.I.I.    :.g.g.P.P.P.P.P.P.P.P.P.P.N.g.g.l     I.I.I.I.I.I.I.I.I.I.I.I.I.I.",
"I.I.I.I.I.I.I.I.I.I.I.I.I.I.t C B k.M.M.P.P.P.P.P.P.P.P.P.P.A.M.M.] C v , I.I.I.I.I.I.I.I.I.I.I.I.I.",
"I.I.I.I.I.I.I.I.I.I.I.I.    l g.g.G.P.P.P.P.P.P.P.P.P.P.P.P.P.P.P.n.g.-.3     I.I.I.I.I.I.I.I.I.I.I.",
"I.I.I.I.I.I.I.I.I.I.I.I.    l g.g.F.P.P.P.P.P.P.P.P.P.P.P.P.P.P.P.b.g.-.3     I.I.I.I.I.I.I.I.I.I.I.",
"I.I.I.I.I.I.I.I.I.I.I.I.    l g.g.H.P.P.P.P.P.P.P.P.P.P.P.P.P.P.P.b.g.-.3     I.I.I.I.I.I.I.I.I.I.I.",
"I.I.I.I.I.I.I.I.I.I.I.I.    l g.g.H.P.P.P.P.P.P.P.P.P.P.P.P.P.P.P.n.g.-.3     I.I.I.I.I.I.I.I.I.I.I.",
"I.I.I.I.I.I.I.I.I.I.I.I.    j 9.9.B.S.S.P.P.P.P.P.P.P.P.P.P.K.S.S.l.9.| <     I.I.I.I.I.I.I.I.I.I.I.",
"I.I.I.I.I.I.I.I.I.I.I.I.    e ( ( 0.g.g.P.P.P.P.P.P.P.P.P.P.N.g.g.#.( L -     I.I.I.I.I.I.I.I.I.I.I.",
"I.I.I.I.I.I.I.I.I.I.I.I.    e ( ( 0.g.g.P.P.P.P.P.P.P.P.P.P.N.g.g.#.( L -     I.I.I.I.I.I.I.I.I.I.I.",
"I.I.I.I.I.I.I.I.I.I.I.I.    y #.#.[ ' ' C.C.S.P.P.P.P.P.Z.C.u.' ' ..#.R :     I.I.I.I.I.I.I.I.I.I.I.",
"I.I.I.I.I.I.I.I.I.I.I.I.    l g.g.9     g.g.n.P.P.P.P.P.l.g.I     ' g.-.3     I.I.I.I.I.I.I.I.I.I.I.",
"I.I.I.I.I.I.I.I.I.I.I.I.    l g.g.9     g.g.n.P.P.P.P.P.l.g.I     ' g.-.3     I.I.I.I.I.I.I.I.I.I.I.",
"I.I.I.I.I.I.I.I.I.I.I.I.    l g.g.9     9 9 Z z.z.z.z.z.i 9 >     ' g.-.3     I.I.I.I.I.I.I.I.I.I.I.",
"I.I.I.I.I.I.I.I.I.I.I.I.    l g.g.9         l g.g.g.g.g.4         ' g.-.3     I.I.I.I.I.I.I.I.I.I.I.",
"I.I.I.I.I.I.I.I.I.I.I.I.    l g.g.9     % % c l.l.l.l.j.5 % o     ' g.-.3     I.I.I.I.I.I.I.I.I.I.I.",
"I.I.I.I.I.I.I.I.I.I.I.I.    l g.g.9     G G K P.P.P.P.P.H G 6     ' g.-.3     I.I.I.I.I.I.I.I.I.I.I.",
"I.I.I.I.I.I.I.I.I.I.I.I.    l g.g.9     G G K P.P.P.P.P.J G 6     _ g.-.3     I.I.I.I.I.I.I.I.I.I.I.",
"I.I.I.I.I.I.I.I.I.I.I.I.X X r D A m D A a.s.w.h.h.h.h.h.d.s.O.D D S D N < X I.I.I.I.I.I.I.I.I.I.I.I.",
"I.I.I.I.I.I.I.I.I.I.I.I.I.I.I.    :.g.g.P.P.b.( ( ( ( ( S.P.N.g.g.l     I.I.I.I.I.I.I.I.I.I.I.I.I.I.",
"I.I.I.I.I.I.I.I.I.I.I.I.I.I.I.    :.g.g.P.P.b.( ( ( ( ( S.P.N.g.g.l     I.I.I.I.I.I.I.I.I.I.I.I.I.I.",
"I.I.I.I.I.I.I.I.I.I.I.I..   X     x.S.S.g g Q N.N.N.N.N.b g &.S.S.n         X I.I.I.I.I.I.I.I.I.I.I.",
"I.I.I.I.I.I.I.I.I.I.I.I.          m.P.P.    V P.P.P.P.P.8   W P.P.V           I.I.I.I.I.I.I.I.I.I.I.",
"I.I.I.I.I.I.I.I.I.I.I.I.          m.P.P.    V P.P.P.P.P.8   W P.P.V         ; I.I.I.I.I.I.I.I.I.I.I.",
"I.I.I.I.I.I.I.I.I.    8 P.P.P.P.P.q                               2.P.P.P.P.1.    I.I.I.I.I.I.I.I.I.",
"I.I.I.I.I.I.I.I.I.    8 P.P.P.P.P.q                               2.P.P.P.P.1.    I.I.I.I.I.I.I.I.I.",
"I.I.I.I.I.I.I.  + E *.=.M.M.y.W W Y U U *.*.! x x x x x @.*./ U U T W $.c.M.i.*.+.u   I.I.I.I.I.I.I.",
"I.I.I.I.I.I.I.    1.P.J.g.g.'     :.g.g.P.P.b.( ( ( ( ( S.P.N.g.g.l   w 6.g.n.P.V.f     I.I.I.I.I.I.",
"I.I.I.I.I.I.I.    1.P.J.g.g.'     :.g.g.P.P.b.( ( ( ( ( S.P.N.g.g.l   w 6.g.n.P.V.f     I.I.I.I.I.I.",
"I.I.I.I.I.I.I.    1.P.L.C.C.>.    d l l 7.7.7.8.8.8.8.8.5.7.~ l l 3   s v.C.D.P.V.f     I.I.I.I.I.I.",
"I.I.I.I.I.I.I.    1.P.P.P.P.2.          ( ( #.g.g.g.g.g.) ( z         f V.P.P.P.V.f     I.I.I.I.I.I.",
"I.I.I.I.I.I.I.  @ %.t.t.t.t.^     r d d o.o. .} } } } { X.o.P d d >   0 ,.t.t.t.<.a     I.I.I.I.I.I.",
"I.I.I.I.I.I.I.I.I.2 = = = = $     ;.q.q.f.f.` & & & & # 3.f.r.q.q.k   O * = = = = I.I.I.I.I.I.I.I.I.",
"I.I.I.I.I.I.I.I.I.                :.g.g.g.g._           4.g.g.g.g.l               I.I.I.I.I.I.I.I.I.",
"I.I.I.I.I.I.I.I.I.I.              A I I I I M           F I I I I p             I.I.I.I.I.I.I.I.I.I.",
"I.I.I.I.I.I.I.I.I.I.I.I.I.I.I.I.I.            I.I.I.I.I.          I.I.I.I.I.I.I.I.I.I.I.I.I.I.I.I.I.",
"I.I.I.I.I.I.I.I.I.I.I.I.I.I.I.I.I.          X I.I.I.I.I.          I.I.I.I.I.I.I.I.I.I.I.I.I.I.I.I.I.",
"I.I.I.I.I.I.I.I.I.I.I.I.I.I.I.I.I.I.I.I.I.I.I.I.I.I.I.I.I.I.I.I.I.I.I.I.I.I.I.I.I.I.I.I.I.I.I.I.I.I.",
"I.I.I.I.I.I.I.I.I.I.I.I.I.I.I.I.I.I.I.I.I.I.I.I.I.I.I.I.I.I.I.I.I.I.I.I.I.I.I.I.I.I.I.I.I.I.I.I.I.I.",
"I.I.I.I.I.I.I.I.I.I.I.I.I.I.I.I.I.I.I.I.I.I.I.I.I.I.I.I.I.I.I.I.I.I.I.I.I.I.I.I.I.I.I.I.I.I.I.I.I.I.",
"I.I.I.I.I.I.I.I.I.I.I.I.I.I.I.I.I.I.I.I.I.I.I.I.I.I.I.I.I.I.I.I.I.I.I.I.I.I.I.I.I.I.I.I.I.I.I.I.I.I."
};
