/* XPM */
static char *result[] = {
/* columns rows colors chars-per-pixel */
"50 50 143 2 ",
"   c #14182E",
".  c #15192F",
"X  c #1D192F",
"o  c #191D33",
"O  c #251B31",
"+  c #1F2339",
"@  c #1D223A",
"#  c #1E233A",
"$  c #1F233B",
"%  c #23263B",
"&  c #23273C",
"*  c #22263D",
"=  c #23273E",
"-  c #24283E",
";  c #24283F",
":  c #69243B",
">  c #272B40",
",  c #282C40",
"<  c #2B2E43",
"1  c #2B2F43",
"2  c #2B2F45",
"3  c #342B41",
"4  c #2C3046",
"5  c #2C3047",
"6  c #2F3349",
"7  c #303347",
"8  c #313549",
"9  c #31354C",
"0  c #36394D",
"q  c #34384F",
"w  c #303552",
"e  c #373B53",
"r  c #343955",
"t  c #373C56",
"y  c #3B3F56",
"u  c #3E4256",
"i  c #3F435A",
"p  c #414457",
"a  c #40445C",
"s  c #42465D",
"d  c #42465E",
"f  c #44485F",
"g  c #4A4E63",
"h  c #434969",
"j  c #514B62",
"k  c #4E5163",
"l  c #4F5366",
"z  c #4C5068",
"x  c #515568",
"c  c #535669",
"v  c #52566C",
"b  c #55586A",
"n  c #585B6C",
"m  c #545870",
"M  c #5D6178",
"N  c #5F637B",
"B  c #636677",
"V  c #656879",
"C  c #AD2E45",
"Z  c #B24257",
"A  c #885A6F",
"S  c #BE697B",
"D  c #BE697C",
"F  c #555C81",
"G  c #5F6588",
"H  c #636780",
"J  c #606582",
"K  c #646880",
"L  c #63698B",
"P  c #6E7181",
"I  c #787B8D",
"U  c #686F99",
"Y  c #6F759E",
"T  c #737790",
"R  c #737791",
"E  c #727692",
"W  c #747891",
"Q  c #777B91",
"!  c #747893",
"~  c #797D97",
"^  c #7A7E97",
"/  c #797E9F",
"(  c #757BA2",
")  c #BD7285",
"_  c #7E8191",
"`  c #7E829C",
"'  c #7E829D",
"]  c #7B82A7",
"[  c #7C82A7",
"{  c #8B8E9E",
"}  c #BC8497",
"|  c #8387A1",
" . c #8388AA",
".. c #858AAC",
"X. c #8B8FA9",
"o. c #8F93AF",
"O. c #9395A4",
"+. c #999BA8",
"@. c #9B9DAA",
"#. c #9C9DAA",
"$. c #898EB0",
"%. c #898FB0",
"&. c #9397B1",
"*. c #9397B2",
"=. c #9B9FB6",
"-. c #969AB9",
";. c #989CB8",
":. c #999EBB",
">. c #9CA1BD",
",. c #A5A7B6",
"<. c #A6A8B5",
"1. c #A4A7B8",
"2. c #A4A7BA",
"3. c #ADAFBE",
"4. c #A3A7C2",
"5. c #A6ABC4",
"6. c #AAADC2",
"7. c #AAAEC6",
"8. c #B0B4CA",
"9. c #B7BACE",
"0. c #B7BACF",
"q. c #BBBDCB",
"w. c #BCBEC8",
"e. c #BDBFC9",
"r. c #B8BBCE",
"t. c #BDBFCC",
"y. c #BEC1D3",
"u. c #C4C7D7",
"i. c #C6C8D6",
"p. c #C8CAD3",
"a. c #CACDDB",
"s. c #CBCDDB",
"d. c #CDCFDC",
"f. c #CDCFDD",
"g. c #CED1DE",
"h. c #D2D3DF",
"j. c #D5D7E2",
"k. c #D6D8E2",
"l. c #D8DAE4",
"z. c #DCDDE6",
"x. c #DEDFE7",
"c. c #DFE0E8",
"v. c None",
/* pixels */
"v.v.v.v.v.v.v.v.v.v.v.v.v.v.v.v.v.v.v.v.v.v.v.v.v.v.v.v.v.v.v.v.v.v.v.v.v.v.v.v.v.v.v.v.v.v.v.v.v.v.",
"v.v.v.v.v.v.v.v.v.v.v.v.v.v.v.v.v.v.v.v.v.v.v.v.v.v.v.v.v.v.v.v.v.v.v.v.v.v.v.v.v.v.v.v.v.v.v.v.v.v.",
"v.v.v.v.v.v.v.v.v.v.v.v.v.v.v.v.v.v.v.v.v.v.v.v.v.v.v.v.v.v.v.v.v.v.v.v.v.v.v.v.v.v.v.v.v.v.v.v.v.v.",
"v.v.v.v.v.v.v.v.v.v.v.v.v.v.v.v.v.v.v.v.v.v.v.v.v.v.v.v.v.v.v.v.v.v.v.v.v.v.v.v.v.v.v.v.v.v.v.v.v.v.",
"v.v.v.v.v.v.v.v.v.v.v.v.v.v.v.v.v.v.v.v.v.v.v.v.v.v.v.v.v.v.v.v.v.v.v.v.v.v.v.v.v.v.v.v.v.v.v.v.v.v.",
"v.v.v.v.v.v.v.v.v.v.v.v.v.v.v.v.v.v.v.v.v.v.v.v.v.v.v.v.v.v.v.v.v.v.v.v.v.v.v.v.v.v.v.v.v.v.v.v.v.v.",
"v.v.v.v.v.v.v.v.v.v.v.v.v.v.v.v.v.v.v.v.v.v.v.v.v.v.v.v.v.v.v.v.v.v.v.v.v.v.v.v.v.v.v.v.v.v.v.v.v.v.",
"v.v.v.v.v.v.v.v.v.v.v.v.v.v.v.v.v.v.v.v.v.v.v.v.v.v.v.v.v.v.v.v.v.v.v.v.v.v.v.v.v.v.v.v.v.v.v.v.v.v.",
"v.v.v.v.v.v.v.v.v.v.v.v.v.v.v.v.v.v.v.v.v.v.v.v.v.v.v.v.v.v.v.v.v.v.v.v.v.v.v.v.v.v.v.v.v.v.v.v.v.v.",
"v.v.v.v.v.v.v.v.v.v.v.v.v.v.v.v.v.                                v.v.v.v.v.v.v.v.v.v.v.v.v.v.v.v.v.",
"v.v.v.v.v.v.v.v.v.v.v.v.v.v.v.v.v.2 5 5 0 0 0 0 0 0 0 0 0 8 > 4 5 v.v.v.v.v.v.v.v.v.v.v.v.v.v.v.v.v.",
"v.v.v.v.v.v.v.v.v.v.v.v.v.v.v.    ^ X.X.e.e.e.e.e.e.e.e.e.w.1.X.X.a     v.v.v.v.v.v.v.v.v.v.v.v.v.v.",
"v.v.v.v.v.v.v.v.v.v.v.v.v.v.v.    X.4.4.c.c.c.c.c.c.c.c.c.c.u.4.4.f     v.v.v.v.v.v.v.v.v.v.v.v.v.v.",
"v.v.v.v.v.v.v.v.v.v.v.v.v.v.v.q q =.8.8.c.c.c.c.c.c.c.c.c.c.a.8.8.M q 9 v.v.v.v.v.v.v.v.v.v.v.v.v.v.",
"v.v.v.v.v.v.v.v.v.v.v.v.    s *.*.d.l.l.c.c.c.c.c.c.c.c.c.c.z.l.l.6.*.~ -     v.v.v.v.v.v.v.v.v.v.v.",
"v.v.v.v.v.v.v.v.v.v.v.v.    f 4.4.j.c.c.c.c.c.c.c.c.c.c.c.c.c.c.c.0.4.| -     v.v.v.v.v.v.v.v.v.v.v.",
"v.v.v.v.v.v.v.v.v.v.v.v.    f 4.4.j.c.c.c.c.c.c.c.c.c.c.c.c.c.c.c.0.4.| -     v.v.v.v.v.v.v.v.v.v.v.",
"v.v.v.v.v.v.v.v.v.v.v.v.    f 4.4.j.c.c.c.c.c.c.c.c.c.c.c.c.c.c.c.0.4.| -     v.v.v.v.v.v.v.v.v.v.v.",
"v.v.v.v.v.v.v.v.v.v.v.v.    d >.>.g.l.l.c.c.c.c.c.c.c.c.c.c.z.l.l.8.>.' =     v.v.v.v.v.v.v.v.v.v.v.",
"v.v.v.v.v.v.v.v.v.v.v.v.    r ( ( 5.8.8.c.c.c.c.c.c.c.c.c.c.a.8.8.$.( G $     v.v.v.v.v.v.v.v.v.v.v.",
"v.v.v.v.v.v.v.v.v.v.v.v.    w U U :.4.4.c.c.c.c.c.c.c.c.c.c.u.4.4.[ U F @     v.v.v.v.v.v.v.v.v.v.v.",
"v.v.v.v.v.v.v.v.v.v.v.v.    t [ ] E W W s.s.h.c.c.c.c.c.f.s.2.W W / [ L #     v.v.v.v.v.v.v.v.v.v.v.",
"v.v.v.v.v.v.v.v.v.v.v.v.    f 4.4.5     4.4.0.c.c.c.c.c.7.4.H     R 4.| -     v.v.v.v.v.v.v.v.v.v.v.",
"v.v.v.v.v.v.v.v.v.v.v.v.    f 4.4.5     4.4.0.c.c.c.c.c.7.4.H     W 4.| -     v.v.v.v.v.v.v.v.v.v.v.",
"v.v.v.v.v.v.v.v.v.v.v.v.    f 4.4.5     m m Q y.y.y.y.y.N m e     W 4.| -     v.v.v.v.v.v.v.v.v.v.v.",
"v.v.v.v.v.v.v.v.v.v.v.v.    f 4.4.5         f 4.4.4.4.4.;         W 4.| -     v.v.v.v.v.v.v.v.v.v.v.",
"v.v.v.v.v.v.v.v.v.v.v.v.    f 4.4.5     O O j 7.7.7.7.7.3 O X     W 4.| -     v.v.v.v.v.v.v.v.v.v.v.",
"v.v.v.v.v.v.v.v.v.v.v.v.    f 4.4.5     C C S c.c.c.c.c.Z C :     W 4.| -     v.v.v.v.v.v.v.v.v.v.v.",
"v.v.v.v.v.v.v.v.v.v.v.v.    f 4.4.5     C C S c.c.c.c.c.Z C :     W 4.| -     v.v.v.v.v.v.v.v.v.v.v.",
"v.v.v.v.v.v.v.v.v.v.v.v.. . y W W z f f D D } r.r.r.r.r.) D A f f K W K *   v.v.v.v.v.v.v.v.v.v.v.v.",
"v.v.v.v.v.v.v.v.v.v.v.v.v.v.v.    X.4.4.c.c.9.U U U U U h.c.u.4.4.f     v.v.v.v.v.v.v.v.v.v.v.v.v.v.",
"v.v.v.v.v.v.v.v.v.v.v.v.v.v.v.    X.4.4.c.c.9.U U U U U h.c.u.4.4.f     v.v.v.v.v.v.v.v.v.v.v.v.v.v.",
"v.v.v.v.v.v.v.v.v.v.v.v.          3.s.s.n n I 9.9.9.9.9.B n { s.s.x         v.v.v.v.v.v.v.v.v.v.v.v.",
"v.v.v.v.v.v.v.v.v.v.v.v.          e.c.c.    n c.c.c.c.c.<   P c.c.n           v.v.v.v.v.v.v.v.v.v.v.",
"v.v.v.v.v.v.v.v.v.v.v.v.          e.c.c.    n c.c.c.c.c.<   P c.c.n         7 v.v.v.v.v.v.v.v.v.v.v.",
"v.v.v.v.v.v.v.v.v.    % c.c.c.c.c.0                               #.c.c.c.c.@.    v.v.v.v.v.v.v.v.v.",
"v.v.v.v.v.v.v.v.v.    < c.c.c.c.c.0                               #.c.c.c.c.@.    v.v.v.v.v.v.v.v.v.",
"v.v.v.v.v.v.v.v.v.k n V s.s.q.@.@.v f f n n g w w w w w c n l f f _ @.<.i.s.,.n b v.v.v.v.v.v.v.v.v.",
"v.v.v.v.v.v.v.    @.c.l.4.4.W     X.4.4.c.c.9.U U U U U h.c.u.4.4.f   q *.4.0.c.p.p     v.v.v.v.v.v.",
"v.v.v.v.v.v.v.    @.c.l.4.4.W     X.4.4.c.c.9.U U U U U h.c.u.4.4.f   q *.4.0.c.p.p     v.v.v.v.v.v.",
"v.v.v.v.v.v.v.    @.c.x.h.h.O.    6 q q  . .%.-.-.-.-.-... .J q q +   u t.h.k.c.p.p     v.v.v.v.v.v.",
"v.v.v.v.v.v.v.    @.c.c.c.c.#.          U U [ 4.4.4.4.4.Y U h         p p.c.c.c.p.p     v.v.v.v.v.v.",
"v.v.v.v.v.v.v.    +.c.c.c.c.#.          U U [ 4.4.4.4.4.Y U h         p p.c.c.c.p.p     v.v.v.v.v.v.",
"v.v.v.v.v.v.v.v.v.> < < < < &     ` &.&.>.>.! ; ; ; ; ; o.>.;.&.&.i   o , < < < 1 v.v.v.v.v.v.v.v.v.",
"v.v.v.v.v.v.v.v.v.                X.4.4.4.4.R           &.4.4.4.4.f               v.v.v.v.v.v.v.v.v.",
"v.v.v.v.v.v.v.v.v.v.              X.4.4.4.4.T           &.4.4.4.4.d             v.v.v.v.v.v.v.v.v.v.",
"v.v.v.v.v.v.v.v.v.v.v.v.v.v.v.v.v.v.v.v.v.v.v.v.v.v.v.v.v.v.v.v.v.v.v.v.v.v.v.v.v.v.v.v.v.v.v.v.v.v.",
"v.v.v.v.v.v.v.v.v.v.v.v.v.v.v.v.v.v.v.v.v.v.v.v.v.v.v.v.v.v.v.v.v.v.v.v.v.v.v.v.v.v.v.v.v.v.v.v.v.v.",
"v.v.v.v.v.v.v.v.v.v.v.v.v.v.v.v.v.v.v.v.v.v.v.v.v.v.v.v.v.v.v.v.v.v.v.v.v.v.v.v.v.v.v.v.v.v.v.v.v.v.",
"v.v.v.v.v.v.v.v.v.v.v.v.v.v.v.v.v.v.v.v.v.v.v.v.v.v.v.v.v.v.v.v.v.v.v.v.v.v.v.v.v.v.v.v.v.v.v.v.v.v."
};
