/* XPM */
static char *result[] = {
/* columns rows colors chars-per-pixel */
"50 50 193 2 ",
"   c #15182C",
".  c #16182C",
"X  c #16192C",
"o  c #16192D",
"O  c #17192D",
"+  c #171A2D",
"@  c #171A2E",
"#  c #181A2D",
"$  c #181A2E",
"%  c #1A1A2E",
"&  c #1B1B2E",
"*  c #1F1D2F",
"=  c #181B30",
"-  c #191C30",
";  c #1A1D30",
":  c #1A1D31",
">  c #1B1D31",
",  c #1B1E31",
"<  c #1A1D32",
"1  c #1E1F31",
"2  c #1D1F33",
"3  c #1B1E34",
"4  c #1B1F34",
"5  c #1C1F35",
"6  c #211E30",
"7  c #221E30",
"8  c #221F31",
"9  c #262132",
"0  c #262335",
"q  c #282133",
"w  c #292333",
"e  c #2B2333",
"r  c #2C2434",
"t  c #2D2434",
"y  c #2C2737",
"u  c #2F2636",
"i  c #342737",
"p  c #312E3B",
"a  c #392A38",
"s  c #3B2B39",
"d  c #392C3A",
"f  c #3D2C3C",
"g  c #36313E",
"h  c #402D3D",
"j  c #412E3D",
"k  c #49323E",
"l  c #4E343F",
"z  c #272A42",
"x  c #212C40",
"c  c #2A2D46",
"v  c #2F3445",
"b  c #2E324C",
"n  c #2F324C",
"m  c #3B3540",
"M  c #3A3541",
"N  c #3B3642",
"B  c #3F3641",
"V  c #3E3742",
"C  c #393745",
"Z  c #3E3944",
"A  c #37394A",
"S  c #37394B",
"D  c #323650",
"F  c #323651",
"G  c #353954",
"H  c #363955",
"J  c #363A56",
"K  c #3F3D55",
"L  c #393D5A",
"P  c #3B3F5C",
"I  c #3C3F5C",
"U  c #433B45",
"Y  c #543742",
"T  c #553842",
"R  c #553B43",
"E  c #573C44",
"W  c #5B3A45",
"Q  c #643F49",
"!  c #3C4455",
"~  c #3D405C",
"^  c #3E405C",
"/  c #334C60",
"(  c #364D60",
")  c #4D434B",
"_  c #49414F",
"`  c #4E444C",
"'  c #5E4046",
"]  c #564A4F",
"[  c #41425C",
"{  c #46445D",
"}  c #46465E",
"|  c #48445D",
" . c #4A455D",
".. c #5A4D51",
"X. c #594B54",
"o. c #5E4957",
"O. c #5D4C5F",
"+. c #5E5054",
"@. c #66404A",
"#. c #67404A",
"$. c #6A424B",
"%. c #6B474B",
"&. c #6D434D",
"*. c #6E444D",
"=. c #674A4F",
"-. c #6F494D",
";. c #70444E",
":. c #634F5F",
">. c #664F5D",
",. c #605155",
"<. c #605255",
"1. c #6A595A",
"2. c #7C5153",
"3. c #7E5152",
"4. c #7E5658",
"5. c #7A5A5A",
"6. c #535065",
"7. c #545065",
"8. c #655460",
"9. c #695160",
"0. c #6D5360",
"q. c #695D66",
"w. c #7E6D77",
"e. c #804D55",
"r. c #814D56",
"t. c #824E56",
"y. c #875058",
"u. c #8E5A58",
"i. c #8C5B5B",
"p. c #915E5E",
"a. c #94605F",
"s. c #99605C",
"d. c #9C625D",
"f. c #9F635E",
"g. c #A2645F",
"h. c #876C67",
"j. c #856E6A",
"k. c #906063",
"l. c #9B6563",
"z. c #9F6664",
"x. c #976D6B",
"c. c #88716D",
"v. c #8F756E",
"b. c #A66760",
"n. c #A26764",
"m. c #A06964",
"M. c #A46864",
"N. c #A96A64",
"B. c #B36E65",
"V. c #A7746F",
"C. c #A87671",
"Z. c #C07F72",
"A. c #AB8B7D",
"S. c #C08879",
"D. c #587686",
"F. c #5D7D8E",
"G. c #5F7F8F",
"H. c #688393",
"J. c #6E8695",
"K. c #708796",
"L. c #5F96A8",
"P. c #5E97AA",
"I. c #639FB2",
"U. c #64A0B3",
"Y. c #65A1B3",
"T. c #66A1B3",
"R. c #64A2B5",
"E. c #9F8683",
"W. c #888591",
"Q. c #9D979F",
"!. c #A08784",
"~. c #BB9D97",
"^. c #9395A1",
"/. c #CF9280",
"(. c #C89684",
"). c #D79C87",
"_. c #C9A28E",
"`. c #D7A38F",
"'. c #DDA48E",
"]. c #CCA490",
"[. c #E5AF96",
"{. c #E3B69C",
"}. c #E3B69E",
"|. c #ECB89D",
" X c #E7B9A0",
".X c #F1C1A4",
"XX c #F6C4A6",
"oX c #F4C6AC",
"OX c #C7C3CB",
"+X c #ECD1C4",
"@X c #E2DDDF",
"#X c #DFE0E7",
"$X c None",
/* pixels */
"$X$X$X$X$X$X$X$X$X$X$X$X$X$X$X$X$X$X$X$X$X$X$X$X$X$X$X$X$X$X$X$X$X$X$X$X$X$X$X$X$X$X$X$X$X$X$X$X$X$X",
"$X$X$X$X$X$X$X$X$X$X$X$X$X$X$X$X$X$X$X$X$X$X$X$X$X$X$X$X$X$X$X$X$X$X$X$X$X$X$X$X$X$X$X$X$X$X$X$X$X$X",
"$X$X$X$X$X$X$X$X$X$X$X$X$X$X$X$X$X$X                                $X$X$X$X$X$X$X$X$X$X$X$X$X$X$X$X",
"$X$X$X$X$X$X$X$X$X$X$X$X$X$X$X$X$X                                  $X$X$X$X$X$X$X$X$X$X$X$X$X$X$X$X",
"$X$X$X$X$X$X$X$X$X$X$X$X$X$X$X$X$X                                  $X$X$X$X$X$X$X$X$X$X$X$X$X$X$X$X",
"$X$X$X$X$X$X$X$X$X$X$X$X$X$X$X    c D D D D D D D D D D D D D D D D 3     $X$X$X$X$X$X$X$X$X$X$X$X$X",
"$X$X$X$X$X$X$X$X$X$X$X$X$X$X$X    b P P P P P P P P P P P P P P P P 4     $X$X$X$X$X$X$X$X$X$X$X$X$X",
"$X$X$X$X$X$X$X$X$X$X$X$X$X$X$Xo o n P P P P P P P P P P P P P P P P 5 o o $X$X$X$X$X$X$X$X$X$X$X$X$X",
"$X$X$X$X$X$X$X$X$X$X$X$X$ @ z H H L P P P P P P P P P P P P P P P P J H F < @ 2 $X$X$X$X$X$X$X$X$X$X",
"$X$X$X$X$X$X$X$X$X$X$X$X    z P P P P P P P P P P P P P P P P P P P P P J =   ; $X$X$X$X$X$X$X$X$X$X",
"$X$X$X$X$X$X$X$X$X$X$X$X    z P P P P P P P P P P P P P P P P P P P P P J =   ; $X$X$X$X$X$X$X$X$X$X",
"$X$X$X$X$X$X$X$X$X$X$X$X    z P P P P P P P P P P P P P P P P P P P P P J =   : $X$X$X$X$X$X$X$X$X$X",
"$X$X$X$X$X$X$X$X$X$X$X$X    z P P P P P P P P P P P P P P P P P P P P P J =   : $X$X$X$X$X$X$X$X$X$X",
"$X$X$X$X$X$X$X$X$X$X$X$X    z P P P P P P P P P P P P P P P P P P P P P J =   ; $X$X$X$X$X$X$X$X$X$X",
"$X$X$X$X$X$X$X$X$X$X$X$X    z P P P P P P P P P P P P P P P P P P P P P J =   ; $X$X$X$X$X$X$X$X$X$X",
"$X$X$X$X$X$X$X$X$X$X$X$X    z P P P P P P P P P P P P P P P P P P P P P J =   ; $X$X$X$X$X$X$X$X$X$X",
"$X$X$X$X$X$X$X$X$X$X$X$X    z P P P P P P P P P P P P P P P P P P P P P J =   : $X$X$X$X$X$X$X$X$X$X",
"$X$X$X$X$X$X$X$X$X$X$X$X    z P P P P P P P P P P P P P P P P P P P P P J =   : $X$X$X$X$X$X$X$X$X$X",
"$X$X$X$X$X$X$X$X$X$X$X$X    z P P P P P P P P P P P P P P P P P P P P P J =   : $X$X$X$X$X$X$X$X$X$X",
"$X$X$X$X$X$X$X$X$X    U v.v.q.P P P P P P P P P P P P P P P P P P P P P } c.v.j.    $X$X$X$X$X$X$X$X",
"$X$X$X$X$X$X$X$X$X    ) XXXX!.P P P P P P P P P P P P P P P P P P P P P 6. XXX].      $X$X$X$X$X$X$X",
"$X$X$X$X$X$X$X$X$X    ) XXXX!.P P P P P P P P P P P P P P P P P P P P P 6. XXX].      $X$X$X$X$X$X$X",
"$X$X$X$X$X$X$X$X$X    ) XXXX!.P P P P P P P P P P P P P P P P P P P P P 6. XXX].      $X$X$X$X$X$X$X",
"$X$X$X$X$X$X$X$X$X    ) XXXX!.P P P P P P P P P P P P P P P P P P P P P 6. XXX].      $X$X$X$X$X$X$X",
"$X$X$X$X$X$X$X$X$X+ o ` .X.XE.^ ^ I P P P P P P P P P P P P P P P P ~ ^ 7.}..X_.o o o $X$X$X$X$X$X$X",
"$X$X$X$X$X$X$X$X$X$X$X$Xg g =.n.n.O.P P P P P P P P P P P P P P P P k.n.a.B g N $X$X$X$X$X$X$X$X$X$X",
"$X$X$X$X$X$X$X$X$X$X$X$X    ' B.B.:.P P P P P P P P P P P P P P P P z.B.f.8   > $X$X$X$X$X$X$X$X$X$X",
"$X$X$X$X$X$X$X$X$X$X$X$X    R f.f.>. . . . .| ~ P P P P [  . . . . .p.f.u.6   > $X$X$X$X$X$X$X$X$X$X",
"$X$X$X$X$X$X$X$X$X$X$X$X    & 8 8 2.N.N.N.N.l.{ P P P P 9.N.N.N.N.N.d 8 6 X   > $X$X$X$X$X$X$X$X$X$X",
"$X$X$X$X$X$X$X$X$X$X$X$X          3.B.B.B.B.M.| P P P P 0.B.B.B.B.B.u         : $X$X$X$X$X$X$X$X$X$X",
"$X$X$X$X$X$X$X$X$X$X$X$Xm m C S S 4.g.g.s.s.i.K G G G G o.s.s.f.g.g._ S A M m Z $X$X$X$X$X$X$X$X$X$X",
"$X$X$X$X$X$X$X$X$X    ) XXXX+X#X#Xw.l l %                     a l l OX#X@XoXXX].      $X$X$X$X$X$X$X",
"$X$X$X$X$X$X$X$X$X    ) XXXX+X#X#Xw.l l %                     a l l OX#X@XoXXX].      $X$X$X$X$X$X$X",
"$X$X$X$X$X$X$X$X$X1.1.h.'.'.~.^.^.8.l l j h f t e e e e i h h k l l W.^.Q.`.'.(.1.1.+.$X$X$X$X$X$X$X",
"$X$X$X$X$X$X@   m XXXX[.B.B.%.    s l l t.y.e.Y l l l l @.y.y.Q l l *   w b.B.Z.XXXXA.    $X$X$X$X$X",
"$X$X$X$X$X$X@   m XXXX[.B.B.%.    s l l t.y.e.Y l l l l @.y.y.Q l l *   w b.B.Z.XXXXA.    $X$X$X$X$X",
"$X$X$X$X$X$X@   m XXXX|././.5.    s l l &.;.*.#.@.@.@.@.$.;.;.W l l *   y S./.).XXXXA.    $X$X$X$X$X",
"$X$X$X$X$X$X@   m XXXXXXXXXXv.    s l l l l T r.y.y.y.y.;.l l l l l *   p {.XXXXXXXXA.    $X$X$X$X$X",
"$X$X$X$X$X$X@   m XXXXXXXXXXv.    s l l l l T r.y.y.y.y.;.l l l l l *   p {.XXXXXXXXA.    $X$X$X$X$X",
"$X$X$X$X$X$X$X$X$X<.,.,.,.,.V     7 q q D.F.G.J.K.K.K.K.H.F.F.! q q #   1 ..,.,.,.,.] $X$X$X$X$X$X$X",
"$X$X$X$X$X$X$X$X$X                      P.R.R.R.R.R.R.R.R.R.R./                       $X$X$X$X$X$X$X",
"$X$X$X$X$X$X$X$X$Xo o o o o o     O # # L.T.Y.I.I.I.I.I.U.T.T.( # # .     o + + o o o $X$X$X$X$X$X$X",
"$X$X$X$X$X$X$X$X$X$X$X$X$X$X,     -.d.d.V.C.x.v x x x x X.C.C.m.d.d.r     $X$X$X$X$X$X$X$X$X$X$X$X$X",
"$X$X$X$X$X$X$X$X$X$X$X$X$X$X$X    3.B.B.B.B.f.9         E B.B.B.B.B.u     $X$X$X$X$X$X$X$X$X$X$X$X$X",
"$X$X$X$X$X$X$X$X$X$X$X$X$X$X$X    3.B.B.B.B.f.9         E B.B.B.B.B.u     $X$X$X$X$X$X$X$X$X$X$X$X$X",
"$X$X$X$X$X$X$X$X$X$X$X$X$X$X$X$X$X8 8 8 8 8 0 $X$X$X$X$X$X8 8 8 8 8 $X$X$X$X$X$X$X$X$X$X$X$X$X$X$X$X",
"$X$X$X$X$X$X$X$X$X$X$X$X$X$X$X$X$X          - $X$X$X$X$X$X          $X$X$X$X$X$X$X$X$X$X$X$X$X$X$X$X",
"$X$X$X$X$X$X$X$X$X$X$X$X$X$X$X$X$X          - $X$X$X$X$X$X          $X$X$X$X$X$X$X$X$X$X$X$X$X$X$X$X",
"$X$X$X$X$X$X$X$X$X$X$X$X$X$X$X$X$X$X$X$X$X$X$X$X$X$X$X$X$X$X$X$X$X$X$X$X$X$X$X$X$X$X$X$X$X$X$X$X$X$X",
"$X$X$X$X$X$X$X$X$X$X$X$X$X$X$X$X$X$X$X$X$X$X$X$X$X$X$X$X$X$X$X$X$X$X$X$X$X$X$X$X$X$X$X$X$X$X$X$X$X$X"
};
