/* XPM */
static char *result[] = {
/* columns rows colors chars-per-pixel */
"50 50 88 1 ",
"  c #70581E",
". c #745D25",
"X c #795F22",
"o c #765F28",
"O c #7D6223",
"+ c #77612B",
"@ c #7A6430",
"# c #7C6A3C",
"$ c #7F6E43",
"% c #836722",
"& c #876822",
"* c #8C6D25",
"= c #856B2D",
"- c #8A6D29",
"; c #906F25",
": c #8F722C",
"> c #947326",
", c #997727",
"< c #957529",
"1 c #9C7A29",
"2 c #846D36",
"3 c #816E3F",
"4 c #8B7239",
"5 c #9A7D3B",
"6 c #A27E2A",
"7 c #826F41",
"8 c #837144",
"9 c #8C7642",
"0 c #8F7841",
"q c #8A7749",
"w c #957E47",
"e c #A6822B",
"r c #AB852C",
"t c #AF892E",
"y c #B18B2E",
"u c #B5902F",
"i c #A98531",
"p c #AF8930",
"a c #B48E31",
"s c #B69031",
"d c #BC9433",
"f c #B6953A",
"g c #BC9939",
"h c #C09734",
"j c #C39A36",
"k c #C69C38",
"l c #C99F39",
"z c #C9A337",
"x c #CDA239",
"c c #CDA838",
"v c #D2A63A",
"b c #D4AC3C",
"n c #DBAD3E",
"m c #D7B23C",
"M c #DDB33E",
"N c #DEBA3E",
"B c #E0BB3F",
"V c #A78A46",
"C c #A88B45",
"Z c #AD904C",
"A c #A78F54",
"S c #AD9250",
"D c #AE9967",
"F c #AF9D73",
"G c #DEB740",
"H c #E2B640",
"J c #E3BB41",
"K c #E8BD42",
"L c #E7C242",
"P c #ECC543",
"I c #EDC944",
"U c #F1CC45",
"Y c #F9D648",
"T c #A29F99",
"R c #AFA387",
"E c #ADA591",
"W c #A6A299",
"Q c #AAA69E",
"! c gray65",
"~ c #B8B5AE",
"^ c #B6B6B6",
"/ c #BDBAB2",
"( c #C2BDB2",
") c #C4C0B6",
"_ c #C4C1BA",
"` c #CECECE",
"' c gray87",
"] c None",
/* pixels */
"]]]]]]]]]]]]]]]]]]]]]]]]]]]]]]]]]]]]]]]]]]]]]]]]]]",
"]]]]]]]]]]]]]]]]]]]]]]]]]]]]]]]]]]]]]]]]]]]]]]]]]]",
"]]]]]]]]]]]]]]]]]]]]]]]]]]]]]]]]]]]]]]]]]]]]]]]]]]",
"]]]]]]]]]]]]]]]]]]]]]]]]]]]]]]]]]]]]]]]]]]]]]]]]]]",
"]]]]]]]]]]]]]]]]]]]]]]]]]]]]]]]]]]]]]]]]]]]]]]]]]]",
"]]]]]]]]]]]]]]]]]]]]]]]]]]]]]]]]]]]]]]]]]]]]]]]]]]",
"]]]]]]]]]]]]]]]]]]]]]]]]]]]]]]]]]]]]]]]]]]]]]]]]]]",
"]]]]]]]]]]]]]]]]]]]]]]]]]]]]]]]]]]]]]]]]]]]]]]]]]]",
"]]]]]]]]]]]]]]]]]]]]]]]]]]]]]]]]]]]]]]]]]]]]]]]]]]",
"]]]]]]]]]]]]]]]]]]]]]]]]]]]]]]]]]]]]]]]]]]]]]]]]]]",
"]]]]]]]]]]]]]]]]]]]]]]]]]]]]]]]]]]]]]]]]]]]]]]]]]]",
"]]]]]]]]]]]]]]]]]]]]]]]]]]]]]]]]]]]]]]]]]]]]]]]]]]",
"]]]]]]]]]]]]]]]]]]]]]]]]]]]]]]]]]]]]]]]]]]]]]]]]]]",
"]]]]]]]]]]]]]]]]]]]]]]]]trrere]]]]]]]]]]]]]]]]]]]]",
"]]]]]]]]]]]]]]]]]]]]]]]rbNvxxdy]]]]]]]]]]]]]]]]]]]",
"]]]]]]]]]]]]]]]]]]]]]]]jBBxlxxsy]]]]]]]]]]]]]]]]]]",
"]]]]]]]]]]]]]]]]]]]]]euYKx6eynxd6]]]]]]]]]]]]]]]]]",
"]]]]]]]]]]]]]]]]]]]]]euYzdnvvyddr]]]]]]]]]]]]]]]]]",
"]]]]]]]]]]]]]]]]]]]]]esYzhnnvdhd6r]]]]]]]]]]]]]]]]",
"]]]]]]]]]]]eerr6]]]']esYBvkkvPvdr6r6rr]]]]]]]]]]]]",
"]]]]]]]]]rzLvvvhaeR^Q2*cLUIIPJhjBBvvjhe]]]]]]]]]]]",
"]]]]]]]]]jmUlxxxhyDEQ9*pbLLLBxzbUMxxllyt]]]]]]]]]]",
"]]]]]]]]yLPneeenvjpAWV6&ajjjdrNIMh6rvMjar]]]]]]]]]",
"]]]]]]]]yLBhjkkhjjaAT0*r666666NLhjkkhhjae]]]]]]]]]",
"]]]]]]]]tLmtnnnasjaAT7%d1***>6NBijnndyjar]]]]]]]]]",
"]]]]]]]]tLIMkjkUJjpA!!] ikjjdtNUHxkkLYkyi]]]]]]]]]",
"]]]]]]]]*kJILLLJxa<2]]]]-**-*%dGIPLKKKt,4(]]]]]]]]",
"]]]]]]]]XpGYYYYHje%.]]]].     ibYYYYKM6*8/]]]]]]]]",
"]]]]]]]]] <jjjjr* ]]eeeeee]]]e>,kkjjye%,Z/]]]]]]]]",
"]]]]]]]]]]*<<<<*=#5gbxjjsai]]*1e6666,>,>w/]]]]]]]]",
"]]]]]]]]]]] +$88q]fcUnvvxjt]]Oei>>>>;*6*9/]]]]]]]]",
"]]]]]]]]]]]](_/~FeMPnsrtxvdte6<1ddddr6&,V)]]]]]]]]",
"]]]]]]]]]]]]]]]]ZeNLjjjjjjjr6*1e6ee61,>>:(]]]]]]]]",
"]]]]]]]]]]]]]]]]]eNJyvnndsjr1Xii*;***&6&.]]]]]]]]]",
"]]]]]]]]]]]]]]]]]eNPvxzlNNjre]=<aadae6O2]]]]]]]]]]",
"]]]]]]]]]]]]]]]]]*gJPBJJKny>*]]=<<<<*&3]]]]]]]]]]]",
"]]]]]]]]]]]]]]]]] ecUUUUBj6X.]]]..@@..]]]]]]]]]]]]",
"]]]]]]]]]]]]]]]]]] -kkkjt>.]]]]]]```]]]]]]]]]]]]]]",
"]]]]]]]]]]]]]]]]]]]-eiri1*o]]]]]]]``]]]]]]]]]]]]]]",
"]]]]]]]]]]]]]]]]]]]]     o]]]]]]]]]]]]]]]]]]]]]]]]",
"]]]]]]]]]]]]]]]]]]]]]]]]]]]]]]]]]]]]]]]]]]]]]]]]]]",
"]]]]]]]]]]]]]]]]]]]]]]]]]]]]]]]]]]]]]]]]]]]]]]]]]]",
"]]]]]]]]]]]]]]]]]]]]]]]]]]]]]]]]]]]]]]]]]]]]]]]]]]",
"]]]]]]]]]]]]]]]]]]]]]]]]]]]]]]]]]]]]]]]]]]]]]]]]]]",
"]]]]]]]]]]]]]]]]]]]]]]]]]]]]]]]]]]]]]]]]]]]]]]]]]]",
"]]]]]]]]]]]]]]]]]]]]]]]]]]]]]]]]]]]]]]]]]]]]]]]]]]",
"]]]]]]]]]]]]]]]]]]]]]]]]]]]]]]]]]]]]]]]]]]]]]]]]]]",
"]]]]]]]]]]]]]]]]]]]]]]]]]]]]]]]]]]]]]]]]]]]]]]]]]]",
"]]]]]]]]]]]]]]]]]]]]]]]]]]]]]]]]]]]]]]]]]]]]]]]]]]",
"]]]]]]]]]]]]]]]]]]]]]]]]]]]]]]]]]]]]]]]]]]]]]]]]]]"
};
