/* XPM */
static char *result[] = {
/* columns rows colors chars-per-pixel */
"50 50 180 2 ",
"   c #73140C",
".  c #6F2210",
"X  c #7D3018",
"o  c #7C3216",
"O  c #504512",
"+  c #564B16",
"@  c #5C511B",
"#  c #7C431A",
"$  c #63561A",
"%  c #67591A",
"&  c #6B5D1C",
"*  c #625417",
"=  c #72631F",
"-  c #6C5F22",
";  c #7F5720",
":  c #766622",
">  c #7A6B24",
",  c #7D6E28",
"<  c #766825",
"1  c #7F7023",
"2  c #8C1A10",
"3  c #941D12",
"4  c #9E1F14",
"5  c #A01F14",
"6  c #832413",
"7  c #832E16",
"8  c #8E2916",
"9  c #882513",
"0  c #972415",
"q  c #9E2416",
"w  c #932A17",
"e  c #972B18",
"r  c #9C2D18",
"t  c #992A17",
"y  c #803A18",
"u  c #8A391A",
"i  c #933319",
"p  c #9A341A",
"a  c #953B1C",
"s  c #9B3C1D",
"d  c #A32015",
"f  c #AB2217",
"g  c #A32817",
"h  c #AF2418",
"j  c #AC2C19",
"k  c #B02417",
"l  c #B32418",
"z  c #BC271A",
"x  c #B52A1A",
"c  c #BE2C1C",
"v  c #A5321A",
"b  c #AC351C",
"n  c #A23E1E",
"m  c #AA3C1D",
"M  c #B4331C",
"N  c #BB321D",
"B  c #B8391E",
"V  c #C52A1C",
"C  c #CC2B1D",
"Z  c #D32D1F",
"A  c #D82E1F",
"S  c #C2301E",
"D  c #D5301F",
"F  c #D62F20",
"G  c #DB2F20",
"H  c #DD3020",
"J  c #E43122",
"K  c #E83323",
"L  c #8B451C",
"P  c #8F481D",
"I  c #95441D",
"U  c #9C431E",
"Y  c #92491E",
"T  c #88541F",
"R  c #A3411E",
"E  c #9B4721",
"W  c #914D20",
"Q  c #9D4C22",
"!  c #8B5520",
"~  c #895C23",
"^  c #955222",
"/  c #9B5324",
"(  c #965B24",
")  c #995B24",
"_  c #A34A23",
"`  c #A24722",
"'  c #A15626",
"]  c #A05927",
"[  c #A25B28",
"{  c #8C6425",
"}  c #8F6927",
"|  c #826223",
" . c #936426",
".. c #926827",
"X. c #946B28",
"o. c #996529",
"O. c #817026",
"+. c #857529",
"@. c #887629",
"#. c #8D7A2C",
"$. c #87792C",
"%. c #94742B",
"&. c #98772D",
"*. c #917E2E",
"=. c #997C2F",
"-. c #A3622B",
";. c #A66C2E",
":. c #A7712F",
">. c #A57531",
",. c #A87431",
"<. c #A57932",
"1. c #AB7A33",
"2. c #8F802C",
"3. c #93812E",
"4. c #938A2B",
"5. c #968330",
"6. c #998531",
"7. c #9D8A33",
"8. c #9E9131",
"9. c #AC8336",
"0. c #A28E35",
"q. c #AE8837",
"w. c #AE8B38",
"e. c #A59237",
"r. c #A89037",
"t. c #AA9936",
"y. c #A79338",
"u. c #A99539",
"i. c #A7993C",
"p. c #AE9A3B",
"a. c #B3923B",
"s. c #B29D3E",
"d. c #B2A136",
"f. c #B5A23D",
"g. c #B9A63E",
"h. c #BCAA3D",
"j. c #BDB23B",
"k. c #C4B73D",
"l. c #C8BB3D",
"z. c #B99F41",
"x. c #B6A241",
"c. c #BCA442",
"v. c #BDA942",
"b. c #C1AD43",
"n. c #C2AE49",
"m. c #C5B344",
"M. c #CAB744",
"N. c #CDBA43",
"B. c #C6B249",
"V. c #C9B449",
"C. c #CEBC4C",
"Z. c #D1BE45",
"A. c #D2BD4E",
"S. c #D3BC50",
"D. c #CFC04A",
"F. c #D4C445",
"G. c #D8C547",
"H. c #D9C847",
"J. c #D4C24B",
"K. c #DAC64C",
"L. c #D7C849",
"P. c #DCCC49",
"I. c #D5C947",
"U. c #DFD249",
"Y. c #D8C451",
"T. c #E0CD4B",
"R. c #E4D44B",
"E. c #E5DA4D",
"W. c #EBDC4E",
"Q. c #E3CD54",
"!. c #E8D354",
"~. c #EAD653",
"^. c #F1DE50",
"/. c #ECE34E",
"(. c #F6E64F",
"). c #FAEC4F",
"_. c #EEE152",
"`. c #F2E650",
"'. c #F8ED51",
"]. c #FDF553",
/* pixels */
"#.C.v.B.v.x.x.v.s.s.s.s.s.f.s.s.s.s.f.z.s.s.s.s.*.> D.B.v.B.v.x.x.x.s.s.s.f.z.s.s.s.s.s.s.s.s.s.s.s.",
"4._.~.Q.Y.S.S.S.S.A.S.S.S.S.S.S.S.S.S.S.S.S.S.V.6.*.E.~.!.Y.S.S.S.A.S.S.S.S.S.S.S.S.S.S.S.S.S.S.A.c.",
"4.'.(.~.!.!.!.!.~.!.!.~.!.!.!.!.!.!.!.!.!.!.~.K.e.8./.).^.!.!.!.~.!.!.!.!.!.!.!.!.~.~.!.!.!.!.!.Q.m.",
"4.'.).(.`.`.`.`.(.(.(.(.`.(.(.(.(.(.(.(.(.(.(.E.u.e./.).'.`.`.`.(.(.(.(.`.(.(.(.`.(.(.(.(.(.(.(.(.A.",
"4.].].].].].].].].].].].].].].].].].].].].].].W.i.e./.].].].].].].].].].].].].].].].].].].].].].].J.",
"$.Y.Y.Y.Y.Y.Y.B.B.B.m.B.m.B.B.B.B.B.m.B.m.b.f.u.+., V.Y.Y.Y.Y.Y.A.B.B.m.B.m.B.B.B.B.m.B.m.B.B.b.p.7.",
"+.v.p.p.p.p.p.p.u.t.p.u.p.u.p.u.p.u.u.u.p.u.u.0., > n.x.p.p.z.p.i.p.t.u.t.u.u.p.p.u.u.u.u.t.u.t.y.3.",
"$.x.u.u.u.y.u.y.u.u.y.u.e.u.y.y.u.u.u.u.u.u.u.0., > B.y.y.y.y.y.u.u.u.u.u.u.u.u.u.u.u.u.u.u.u.u.y.3.",
"$.x.x.v.m.k.s.7.e.u.7.6.5.6.6.6.7.6.7.u.M.g.u.w.O.= n.u.f.m.s.e.7.7.5.7.5.7.6.6.7.u.u.m.M.m.g.7.y.3.",
"+.x.e.U.P.M.u.6.y.7.T P I W W W P # &.s./.x.u.0.O.> g.u.k.W.p.6.| L Y Y Y P Y P { 0.u.I.E.F.h.@.y.3.",
", s.y.L.g.6.6.u.6.) c C C C C Z Z 3 1.h.L.3.0.0.O.> s.u.k.N.3.3.T z Z C C C C l 8 { r.s.h.s.7.@.y.3.",
"> p.y.C.e.6.e.y.X.B J Z C V C Z K 5 1.h.L.*.0.0.O.= s.u.M.N.*.6.T V K C C V C F 4 o s.u.p.s.0.@.y.3.",
"> p.u.x.5.e.7.y.a.' Z Z 5 d 5 f Z 5 1.b.F.*.0.0., : x.y.k.l.*.5.T C Z d 5 5 d z 0 ,.p.0.7.y.#.@.y.3.",
"< p.u.5.7.e.0.6.e.s._ c C 5 5 5 l 3 1.g.Z.*.0.0.O.: p.y.b.m.*.5.T V C d 5 5 f g -.u.0.7.0.y.7.#.y.3.",
"@ 7.u.e.e.&.=.0.7.e.q.` f f d 4 5 2 1.g.Z.*.0.0.O.: x.0.k.m.*.5.^ V C d 5 5 q / a.0.6.0.&.=.y.0.y.#.",
"O #.u.e.%.m Q 6.0.7.u.w.U 3 4 q 5 2 1.c.N.*.0.0.O.: p.q.k.m.*.5.T V C f d 3 / a.e.7.u.&.n E =.u.e.= ",
"O #.u.%.U H C I 5.0.7.u.r.Q 4 f f 3 1.f.N.3.0.0.+.: p.u.b.m.*.5.! C Z l 4 / a.e.6.e.3.R F h W x.e.> ",
"O #.y.{ M A Z Z U 6.0.6.p.w.s f V 3 1.c.V.*.0.0., : s.y.v.b.*.5.T V J q ] a.u.6.0.=.a C G l a n.e.> ",
"O #.u...M Z l C N ) 7.0.0.y.9.t l 3 1.c.B.*.0.e.O.: s.u.v.v.*.3.! V V s w.y.0.0.7.Q C V z h a v.e., ",
"O #.e...M Z f f C M o.0.7.0.u.;.r 2 1.s.c.*.0.0.O.: s.e.x.x.3.6.T d r q.y.0.0.6.) S C f d 4 a b.u.= ",
"O #.y.} b A l 4 h C N  .0.0.7.p.,.9 1.z.p.$.0.e.O.: p.u.s.p.+.5.T p 9.u.7.0.7.) V V 5 4 5 5 a b.u., ",
"+ 3.y.*.` C C 5 q f C M ..7.0.0.a.;.w.p.u.+.7.0.O.: s.y.p.y.@.6.%.,.t.0.0.6.) N C 5 4 l l d [ x.e.O.",
"- e.y.p.9.v V f 5 d z C b X.u.6.0.f.p.7.7.3.e.e.O.: s.u.e.7.7.0.s.s.0.7.0. .N A z 5 l C z E w.u.e.#.",
"> p.y.u.p.1.r l f d l Z G m X.0.0.u.0.d.d.1 7.7.O.: p.y.6.8.f.t.7.e.0.0. .b A J Z Z Z V s q.t.u.t.3.",
"> p.u.m.p.p.:.2 f d f z V h u 5.u.4.j.F.d.O.6.e.O.: x.y.2.4.h.Z.g.8.e.X.p l V z z V z p 1.s.p.f.e.*.",
"< p.y.R.F.p.p.9.p i i i i i 7 r.6.j.N.g.P.7.@.7.O.: p.e.3.j.V.t.v.e.7.{ i i i p i 7 7 9.u.s.h.3.u.3.",
", p.u.U.F.v.u.a.a.a.a.a.a.a.a.p.@.l.h.F.'.h.& 7.O.: s.0.t./.R.7.+.@.3.e.a.a.a.a.a.a.a.u.s.k.s.+.e.3.",
"< p.u.L.s.f.p.y.u.e.u.e.e.e.e.u.+.k.d.L.(.h.% 7.O.: p.e.t.(.P.3.= O.3.e.e.e.u.0.u.0.e.u.F.m.7.@.e.3.",
"> p.u.G.f.0.3.u.6.3.7.5.6.6.6.6.+.h.p.M.Q.g.% 6.O.: s.0.e.Q.A.3.= +.3.6.3.7.5.6.5.6.6.f.L.f.0.@.e.3.",
"> p.u.Z.t.6.0.e.6.6.3.7.5.6.6.e.+.p.7.s.V.0.* 7.O.= s.7.*.V.f.$.= O.3.0.7.5.6.6.6.5.3.y.h.v.0.@.e.3.",
"> p.y.l.0.0.e.%.L I I U I L # s.@.3.$.O.3., = 7.O.: s.7., *.#.= O.O.3.X.P I U I I I U =.e.p.3.@.u.3.",
"< p.e.e.0.y.%.p C Z Z Z Z l 9 s.7.: @., & * @.0.O.: s.e., % & O.#., 7.T 0 c Z Z Z Z D U =.e.7.@.e.3.",
"< p.u.e.y.=.s A C C C Z Z q ;.p.u.*.< 3.#.& 5.0.1 : p.y.@.1 7.#.= 6.y.u./ 4 A J C C Z C Y 7.u.e.u.3.",
"< z.u.y.6.Q C V f f h l g ] p.0.0.7.#.> : & 7.0.+.: x.u.3.= : , #.e.7.e.w./ j Z V 5 5 V S ) 7.u.e.3.",
"< i.y.7.( c C 5 q 5 l g ' a.0.7.0.%.6.0.t.e.e.e.O.: i.y.u.t.e.7.=.=.0.7.e.a.Q l Z f 5 f C M  .p.e.*.",
"@ 5.u.{ j Z f 4 5 l q [ f.0.7.0.%.X 1.v.`.m.u.0.O.< s.y.M./.f.7.T I &.0.7.e.a./ f Z l 5 h Z n b.e.+.",
"O #.u.} M Z f 4 l 4 -.a.0.7.0.%.m 3 1.v.P.6.0.e.O.: s.y.m.F.3.3.T x U 5.0.7.u.w.E l F l f z s b.e.> ",
"O #.u.} M A l l d _ r.0.7.0.5.n G 5 1.c.F.*.0.0.O.: s.y.k.M.*.6.T V D ^ 7.0.7.e.9.a z C d d s b.e.> ",
"O #.u.} M A l f s 9.y.0.0.6.) C G 5 :.k.F.*.0.0.O.: s.y.m.M.&.3.! C K N  .7.0.0.p.1.e z l 4 a v.y.> ",
"O #.u.} v l 4 w 9.p.6.0.0.( c V z 4 ,.h.Z.*.0.e.O.: s.y.k.m.#.6.! C A Z N  .7.7.0.p.1.r l q u b.y.> ",
"O #.y.u.<.8 s a.y.7.0.6.^ c V d 5 2 1.c.N.*.0.0., : p.u.v.m.2.5.! V F l C x ) 7.7.0.r.9.p a 9.u.y.> ",
"O #.y.u.p.X.9.u.0.0.6./ V C f d q 2 1.g.N.*.0.0.O.: x.u.m.m.*.5.! V C 5 l z v ( 0.7.0.p.,.1.u.u.y.< ",
"+ #.u.f.u.z.p.0.7.0.( M Z h 5 4 d 2 1.c.Z.*.0.e.O.: p.u.h.m.*.5.! V C 5 4 4 l r X.0.5.0.s.p.u.p.y., ",
"- e.u.U.v.e.0.6.0...N F z 4 5 4 d 2 1.c.V.*.0.0.O.: s.y.b.m.2.5.! V F 5 5 4 5 5 s &.y.7.0.p.g.i.y.#.",
"> p.u.U.K.f.0.y.} a C J V f 5 d l 3 1.x.B.*.0.0.O.: p.u.v.v.*.5.! C K V 5 5 5 l g o p.y.0.k.g.@.7.*.",
"> p.u.D.v.c.p.y.0.^ d V z d 4 5 3   >.z.c.3.0.0.O.: p.u.x.x.*.5.! l C 5 5 4 5 5 6 o.p.t.m.m.0.@.z.*.",
"> p.u.x.y.y.z.0.x.0.u 0 e 0 8 8 6 . <.x.x.#.7.e.1 : z.y.x.p.#.5.! 0 t 8 0 8 8 8 ! u.u.g.F.s.7.+.7.#.",
", p.u.#.+.O.+.+.y.y.z.b.z.z.b.c.c.c.v.s.y.= 7.e., < p.u.z.7.: *.*.c.c.c.c.z.b.z.z.y.u.s.#.+.> % z.=.",
"< e.3.#.#.*.#.*.*.3.5.5.5.5.=.5.5.5.=.5.*.#.*.*., : p.=.5.*.#.*.*.5.*.5.5.5.*.6.*.*.*.*.*.*.#.#.*.$.",
"< 6.#.#.#.#.#.#.#.#.#.#.#.#.#.#.#.#.#.#.$.#.#.#.> < y.#.#.#.#.#.#.#.#.#.#.#.#.#.#.#.*.*.#.$.#.#.#.@."
};
