/* XPM */
static char *result[] = {
/* columns rows colors chars-per-pixel */
"50 50 98 2 ",
"   c #79A230",
".  c #779F2F",
"X  c #769E2F",
"o  c #78A030",
"O  c #78A02F",
"+  c #779E2E",
"@  c #79A130",
"#  c #7BA531",
"$  c #82AC35",
"%  c #80AA34",
"&  c #7CA531",
"*  c #7AA330",
"=  c #7AA231",
"-  c #779E2F",
";  c #78A130",
":  c #71972C",
">  c #759C2E",
",  c #7FA933",
"<  c #7DA632",
"1  c #7BA431",
"2  c #78A12F",
"3  c #769D2E",
"4  c #82AD34",
"5  c #7DA732",
"6  c #86B137",
"7  c #769D2F",
"8  c #72992D",
"9  c #70962C",
"0  c #769E2E",
"q  c #85AF36",
"w  c #7CA532",
"e  c #7AA230",
"r  c #7CA632",
"t  c #7EA732",
"y  c #749B2E",
"u  c #739A2D",
"i  c #77A030",
"p  c #749A2E",
"a  c #7AA331",
"s  c #769F2F",
"d  c #759D2E",
"f  c #77A02F",
"g  c #86B136",
"h  c #7CA631",
"j  c #80AA33",
"k  c #71982D",
"l  c #6F952C",
"z  c #84AF35",
"x  c #83AD35",
"c  c #789F2F",
"v  c #72982D",
"b  c #83AE35",
"n  c #7EA832",
"m  c #7FA833",
"M  c #7FA932",
"N  c #81AB34",
"B  c #7EA833",
"V  c #749C2E",
"C  c #86B036",
"Z  c #87B237",
"A  c #85B035",
"S  c #6F942B",
"D  c #84AE35",
"F  c #82AC34",
"G  c #84AE34",
"H  c #84AE36",
"J  c #81AC34",
"K  c #7AA431",
"L  c #85B036",
"P  c #6E932B",
"I  c #73992D",
"U  c #79A330",
"Y  c #71962C",
"T  c #70972C",
"R  c #70952C",
"E  c #81AA33",
"W  c #84AF36",
"Q  c #6E942B",
"!  c #83AE34",
"~  c #80AB33",
"^  c #7EA733",
"/  c #82AD35",
"(  c #81AA34",
")  c #71972D",
"_  c #7BA331",
"`  c #7FAA33",
"'  c #80A933",
"]  c #80AB34",
"[  c #81AB33",
"{  c #749A2D",
"}  c #749B2D",
"|  c #7CA431",
" . c #79A12F",
".. c #7FA832",
"X. c #759D2F",
"o. c #739A2E",
"O. c #83AD34",
"+. c #82AB34",
/* pixels */
"  . X o O O X + O @ # $ % & *   = - - @     X .   ; X : >   > .   . X       , , < *   < 1   2 O O X ",
"      3 > 3 ; ; > O   * , 4 # 5 6 1               X 7 ;     > .   8 9       0 1 q w   6 , ; 3 > 3 O ",
"X X X > X O   ; > O ; X e r * 1 t y u O i .   & $ * ;   o X O @   > p       3 O 5 a   t e X O O O s ",
"> > d d O a   ; d O O 7 . 2     @ 9 9 f . 3   < g &   @ o - @     - 3 @     3 -   @ @   - d @ * a . ",
"> . ; ; h j 1   ; - - O > k . O 3 l 9 f . 3   h z & @ 3 w x 3 c   ; o 3 O   ; ; @ - 3   y v 2 < b 1 ",
". < , n m n *   . . .   X y O O > u y ; O .   1 M   . . 1 N . * n , B . . .   i V > > . > y . & C N ",
"* b Z A ,     ; > O           O > ;               7 7         n z g C   X > ; 7 S u > > . ; d e z g ",
"* b Z w *     ; > O & D q D &   ;   1 x B         @ - 9 y   3 O 1 F G   % H a 7 S u > ; u v f   # 4 ",
"* J q K   ; f . 3 f 1 b C L B 1   1 < b 5 f ; @   @ X P I ; 3 .   , J 1 N H U 7 Y y 3   y k 2   * , ",
"  1 #   f > : k ; - . 1 % A q N   x b < > T 3 -   X y P k 3 ; @   a & 4 1 o 7 X f ; ;   0 > @     o ",
"  V u ; ; 7 R R . . . . * M D E . W W e v l . . . . - y V > . O       n   . . . . ;     ; . . . . . ",
"; : P 2   f 9 l > O ; d . a F , > H H o : l   O > 2     . > > .               O d ;       ; d > > O ",
"> O   3 . ; 3 3     ; d > > > > > ;     . > > u Q s 2 > .     y P I 3   X > ; 5 ! #     N D 1     X ",
"X O O 0 . O @ e < a ; X X 7 > d X ;     O 3 > p 9 . @ X f   O p P p X   . X   & ~ n < O t % *     . ",
"; X > ; . c N z 6 5       ; 3 X           ; > > > 2         > v P d             1 D 6 > 3 - @       ",
"X 8 Y 7 . @ r n L b % * ^ N a ;   . . @ f - O O O   1 / B   O . 7 0 .   . X     U < ^ O O f X X X ; ",
"> 9 P > f     a J A z 5 % / #   2 - X @ f X 2 @     # W ( &       . X   X > ;   ;     2 f X > d X ; ",
"> 9 P 2           ~ A Z %     O > ;       ; > X         , Z             X > ; O d ;   > ) R y X     ",
"X v 9 . ;   O O   < j F ^   O . X ; * h 1   X ; 5   o   , g   1 t e O O . X f X u X O X y I 3 .     ",
"  X > > . ; 3 3   X 3 @   @ 3 X     1 4 n     < 6 @ 7   n z   , Z _ > > O   3 I S u >               ",
"  X > ;   ; 3 3   X p 9 V             * ( H 3 e D O 7     a 3 O K   ; ; ` ! * ; f 3 >     & W J   X ",
"  . X < # @ . O ^ @ V S u O       2 o   B N X   j @ - O ;   > .   ; O   n N 5 5 < O X   & ' L J   . ",
"      C N     # Z t . l v d ;     3 3 ;             2 > .   > .   X 3       ! L L r     N 6 z ~     ",
". ;   m % ' K # Z t o > 7 o 5 5   O f   O .   ; . . . . ;   . . . u 8       5 ] L F N   j D M h   O ",
"> O     , q # # Z t       a F ~         . 3   O > > 7         . > Y l         5 z 6 Z   , F a     X ",
"  X > ; . 3 ;       ; d .     t Z #       ; > > > 2     V P       v l   X > ; O - [ z   . 3 @ d S X ",
"  X > ; ; . @ 2 y X . . o     5 g 1 * B &   . 3 v X f   X u       y 8   O .   ; O 5 ,   O . . X u f ",
"  X > ;       f P I 3 @       < z 1 # q ,     X S { 7             X 3                     ; d X     ",
"  ; O   5 N 1 ; 7 . f X o     K 5 f O < 1   X y S d O   5 /       ; O       . f       X o   O 2   y ",
"  * K a , D 1   ;   O > X         X 3 ;   ; 3 } R .   ; , Z K *       K U   3 - ; ; 2 > .   a a ; 8 ",
"* b Z A ,     ; > O . l y @ 3 X     ; 3 .           2 > | z Z N     K Z t     O y R P > . # ! ~     ",
"x z L t 1 @ . X > O . l y 2 8 8 X ;   O ;     ; - @ 2 >  .< L ..X B J _ e   - . . 9 P O ; * h ..F & ",
"Z L z a   ; 3 > > O . l y O 9 9 > ;           O > 2 2 > .   z < > N q > O   3 X O 9 P         t 6 < ",
"z n &       ; 2 2   O y X   . . 2 - X @ , x     2     2 . 7 O o 2 1 & 2 - 7 O f X X s 7 7 X   5 z r ",
"j * O   @ o       r w . o   o ;   . . @ j L ^ r     * ^ _ X X f   ; O   . X X.d d ;   X y y ; & j * ",
"; X > ; f 3 ;     / D 1     0 X         , z Z b U U < 6 %         X 3       9 : 3 ;     o.: O     X ",
"X O O   @ O X -   N 4 a B F a . X ;     1 5 L N . % N = e   X O   ; ;       X . 2       f X X .   ; ",
"> O       ; 3 3   ~ F a % L r O > ;       a z j 3 x x > .   > .                           ; d X     ",
"; : P 2 y l y 3     ; d > d ;     9 l y .                         / C   X > ;   1 D Z         O > O ",
"  V u . u R 3 .   o . . . . . o   y } X . f       f - y d .       B ( n 5 <   1 % W g     @ f d 8 . ",
"  @ ; 3 u v O     . X @   2 X O #       . 0       7 y 9 8 3     ; ;   4 L Z K 5 g x F ;   ; X y 9 X ",
"  - 3 ; O O       @ ;   f 7 O r q 1     @ ;       7 d f O ;   f 3 3 X 1 J A a 5 b _ c 3 f   ; ; . X ",
"  - 3 * *       # * * # @ 3 o 5 Z 5 1       # K   - -       ; . 3 > >   , 4 a & j O > 3 f   ; @   - ",
"      ! ,     # Z t r L % @ 3 e z Z q #   K Z b *           > .   v l         O > > >     ; d X     ",
"  m N & _     1 g x % , w @ 3 O n W D 1 5 ( < 1 . @ 1 N 5   . ;   X V       . . X 8 )     a ^ <   f ",
"< b 6 O c   ; e F L b e ; O 3 X   ~ j * m $ 3 > { O & D % # r 1       r a   0 . O 9 P ; @ # x J w O ",
"L L z *   ; X 0 a N N . d d > X   * e X ; a @ X l .   1 B ! L j     K L 5   @   O 9 P d f   K n q w ",
"g 4 ~ @ @ @ . .   5 5 . X 7 { >     @ . O   O 0 v + ;   r ~ g j   h B / r   X X . u v X . O   5 L < ",
"! &   3 .         X 3 @   O : 8   * *     ; > X   7 7       b ,   $ q       9 : 3 o     . 0 ; r O.& ",
"& *   ; . - @ ; X d 3 @ O X X .   +.J 1 O 3 > X   7 7   o X h   X _ w X X X X . O - X   ; f X . @   "
};
