/* XPM */
static char *result[] = {
/* columns rows colors chars-per-pixel */
"50 50 211 2 ",
"   c #14182E",
".  c #15182E",
"X  c #15192E",
"o  c #15192F",
"O  c #16192F",
"+  c #161A30",
"@  c #171B30",
"#  c #171B31",
"$  c #181B31",
"%  c #1C1B30",
"&  c #181C31",
"*  c #181C32",
"=  c #191D32",
"-  c #1C1C30",
";  c #1D1C31",
":  c #1F1D31",
">  c #1F1D32",
",  c #1E1F33",
"<  c #191D34",
"1  c #241F33",
"2  c #1F2033",
"3  c #1D2035",
"4  c #1E2035",
"5  c #1D2036",
"6  c #1D2136",
"7  c #292235",
"8  c #2F2536",
"9  c #22233C",
"0  c #2F283A",
"q  c #302637",
"w  c #332939",
"e  c #302C3C",
"r  c #382939",
"t  c #3D2C3B",
"y  c #3E2D3C",
"u  c #432C3B",
"i  c #442F3D",
"p  c #45303D",
"a  c #46303D",
"s  c #46303E",
"d  c #4C303F",
"f  c #4F313E",
"g  c #52323F",
"h  c #232740",
"j  c #242842",
"k  c #252A43",
"l  c #252F47",
"z  c #2B2B45",
"x  c #2C2C46",
"c  c #292D48",
"v  c #2B2F4A",
"b  c #2F304B",
"n  c #2D324E",
"m  c #3E3340",
"M  c #3B3441",
"N  c #2F3450",
"B  c #313552",
"V  c #343956",
"C  c #3F3E53",
"Z  c #373C5A",
"A  c #383D5B",
"S  c #3C3E5A",
"D  c #393E5C",
"F  c #3A3F5D",
"G  c #3A3F5E",
"H  c #433B46",
"J  c #453C46",
"K  c #453C47",
"L  c #543742",
"P  c #563444",
"I  c #5C3643",
"U  c #573B44",
"Y  c #583946",
"T  c #583A46",
"R  c #5F3844",
"E  c #603944",
"W  c #643A46",
"Q  c #623E46",
"!  c #663F47",
"~  c #633E49",
"^  c #683C4A",
"/  c #6D3E4A",
"(  c #6C3E4B",
")  c #3B405E",
"_  c #325E73",
"`  c #4D424B",
"'  c #4F434B",
"]  c #51454C",
"[  c #504551",
"{  c #574B58",
"}  c #694148",
"|  c #68464C",
" . c #70454A",
".. c #70404D",
"X. c #71434C",
"o. c #614F54",
"O. c #704553",
"+. c #714D55",
"@. c #67555D",
"#. c #6A5759",
"$. c #795758",
"%. c #404360",
"&. c #434460",
"*. c #424461",
"=. c #424561",
"-. c #4D4C64",
";. c #504D65",
":. c #535067",
">. c #5B5569",
",. c #7C5560",
"<. c #7B5565",
"1. c #7B5665",
"2. c #7C5565",
"3. c #7E5961",
"4. c #795D67",
"5. c #715F68",
"6. c #755D69",
"7. c #5B6473",
"8. c #7A6260",
"9. c #746773",
"0. c #8A4B55",
"q. c #8F4D57",
"w. c #925656",
"e. c #945655",
"r. c #9B5957",
"t. c #995359",
"y. c #A25C59",
"u. c #A75C5D",
"i. c #B3655F",
"p. c #9D5C60",
"a. c #806663",
"s. c #826064",
"d. c #806764",
"f. c #836965",
"g. c #8C6268",
"h. c #80686B",
"j. c #836A6B",
"k. c #8A6D68",
"l. c #90736E",
"z. c #94746D",
"x. c #96766E",
"c. c #856973",
"v. c #876F7D",
"b. c #9E6872",
"n. c #957773",
"m. c #947B7D",
"M. c #A66162",
"N. c #AE6F67",
"B. c #B76760",
"V. c #B26865",
"C. c #BA6861",
"Z. c #BE6A62",
"A. c #A06C75",
"S. c #C6756A",
"D. c #CC7C6F",
"F. c #A98477",
"G. c #B68D7E",
"H. c #CB8072",
"J. c #CD8173",
"K. c #CB8878",
"L. c #D18475",
"P. c #D38676",
"I. c #DC927F",
"U. c #4C6884",
"Y. c #4D758F",
"T. c #4E869E",
"R. c #4FA4B8",
"E. c #AD8A82",
"W. c #BB9180",
"Q. c #B49088",
"!. c #BC958A",
"~. c #B08A93",
"^. c #9792A0",
"/. c #B797A0",
"(. c #B8B5BF",
"). c #C59683",
"_. c #C69C8E",
"`. c #CD9F8C",
"'. c #DF9682",
"]. c #D39D87",
"[. c #E59F88",
"{. c #D3A38E",
"}. c #CEA190",
"|. c #CFA291",
" X c #DFA791",
".X c #DCA992",
"XX c #DFAD96",
"oX c #ECA88F",
"OX c #E2AD93",
"+X c #EFAC91",
"@X c #E7B299",
"#X c #E9B298",
"$X c #F7BD9E",
"%X c #FABD9E",
"&X c #FBBD9E",
"*X c #FABE9E",
"=X c #FBBE9E",
"-X c #FCBE9F",
";X c #D3BCB5",
":X c #FFC2A1",
">X c #B3CEDA",
",X c #CAC3C6",
"<X c #C6C7D1",
"1X c #C6C8D1",
"2X c #CECAD3",
"3X c #CECBD3",
"4X c #EED2C7",
"5X c #EED2C8",
"6X c #E4DBDC",
"7X c #DFE0E8",
"8X c None",
/* pixels */
"8X8X8X8X8X8X8X8X8X8X8X8X8X8X8X8X8X8X8X8X8X8X8X8X8X8X8X8X8X8X8X8X8X8X8X8X8X8X8X8X8X8X8X8X8X8X8X8X8X8X",
"8X8X8X8X8X8X8X8X8X8X8X8X8X8X8X8X8X8X8X8X8X8X8X8X8X8X8X8X8X8X8X8X8X8X8X8X8X8X8X8X8X8X8X8X8X8X8X8X8X8X",
"8X8X8X8X8X8X8X8X8X8X8X8X8X8X8X8X                                o 8X8X8X8X8X8X8X8X8X8X8X8X8X8X8X8X8X",
"8X8X8X8X8X8X8X8X8X8X8X8X8X8X8X8XX                               o 8X8X8X8X8X8X8X8X8X8X8X8X8X8X8X8X8X",
"8X8X8X8X8X8X8X8X8X8X8X8X8X8X8X8Xj j j j j j j j j j j j j j j j h 8X8X8X8X8X8X8X8X8X8X8X8X8X8X8X8X8X",
"8X8X8X8X8X8X8X8X8X8X8X8X8X    < D G G G G G G G G G G G G G G G B     8X8X8X8X8X8X8X8X8X8X8X8X8X8X8X",
"8X8X8X8X8X8X8X8X8X8X8X8X8X    < D G G G G G G G G G G G G G G G B     8X8X8X8X8X8X8X8X8X8X8X8X8X8X8X",
"8X8X8X8X8X8X8X8X8X8X8X    v n N F G G G G G G G G G G G G G G G Z n n k o X 8X8X8X8X8X8X8X8X8X8X8X8X",
"8X8X8X8X8X8X8X8X8X8X      V G G G G G G G G G G G G G G G G G G G G G c     8X8X8X8X8X8X8X8X8X8X8X8X",
"8X8X8X8X8X8X8X8X8X8X      V G G G G G G G G G G G G G G G G G G G G G c     8X8X8X8X8X8X8X8X8X8X8X8X",
"8X8X8X8X8X8X8X8X8X8X      V G G G G G G G G G G G G G G G G G G G G G c     8X8X8X8X8X8X8X8X8X8X8X8X",
"8X8X8X8X8X8X8X8X8X8X      V G G G G G G G G G G G G G G G G G G G G G c     8X8X8X8X8X8X8X8X8X8X8X8X",
"8X8X8X8X8X8X8X8X8X8X      V G ) *.=.%.G G G G G G G G G G G =.=.%.G G c     8X8X8X8X8X8X8X8X8X8X8X8X",
"8X8X8X8X8X8X8X8X8X8X      V G ;.XX@XQ.G G G G G G G G G G G @X@X!.G G c     8X8X8X8X8X8X8X8X8X8X8X8X",
"8X8X8X8X8X8X8X8X8X8X      V G :.$X:X_.G G G G G G G G G G G :X:X}.G G c     8X8X8X8X8X8X8X8X8X8X8X8X",
"8X8X8X8X8X8X8X8X8X8X      V G :.$X:X|.>.>.>.>.>.>.>.>.>.>.>.:X:X}.G G c     8X8X8X8X8X8X8X8X8X8X8X8X",
"8X8X8X8X8X8X8X8X8X8X      V G :.$X:X:X:X:X:X:X:X:X:X:X:X:X:X:X:X}.G G c     8X8X8X8X8X8X8X8X8X8X8X8X",
"8X8X8X8X8X8X8X8X8X8X      V G :.$X:X:X:X:X:X:X:X:X:X:X:X:X:X:X:X}.G G c     8X8X8X8X8X8X8X8X8X8X8X8X",
"8X8X8X8X8X8X8X8X8X8XK J J S G -.`.{.{.{.{.#X:X:X:X:X:X.X{.{.{.{.E.G G C J J H 8X8X8X8X8X8X8X8X8X8X8X",
"8X8X8X8X8X8X8X$     G.:X:X>.G A x z z z z n.:X:X:X:X:X{ z z z z b G G m.:X:Xk.    8X8X8X8X8X8X8X8X8X",
"8X8X8X8X8X8X8X=     G.:X:X>.G A x z z z z n.:X:X:X:X:X{ z z z z b G G m.:X:Xk.    8X8X8X8X8X8X8X8X8X",
"8X8X8X8X8X8X8X*     G.:X:X>.G &.h.j.@.9 9 l.:X:X:X:X:X[ 9 9 j.j.5.G G m.:X:Xk.    8X8X8X8X8X8X8X8X8X",
"8X8X8X8X8X8X8X&     G.:X:X>.G :.$X:XW.    k.:X:X:X:X:XJ     :X:X}.G G m.:X:Xk.    8X8X8X8X8X8X8X8X8X",
"8X8X8X8X8X8X8X#     G.:X:X>.G :.$X:XW.    k.:X:X:X:X:XJ     :X:X}.G G m.:X:Xk.    8X8X8X8X8X8X8X8X8X",
"8X8X8X8X8X8X8X8X8X8X8.k.k.3.,.g.*X:XW.    $.'.'.'.'.'.m     :X:X X,.,.s.k.k.#.8X8X8X8X8X8X8X8X8X8X8X",
"8X8X8X8X8X8X8X8X8X8X      y.Z.S.-X:XW.    } Z.Z.Z.Z.Z.r     :X:X+XZ.Z. .    8X8X8X8X8X8X8X8X8X8X8X8X",
"8X8X8X8X8X8X8X8X8X8X      y.Z.S.-X:XW.    } Z.Z.Z.Z.Z.r     :X:X+XZ.Z. .    8X8X8X8X8X8X8X8X8X8X8X8X",
"8X8X8X8X8X8X8X8X8X8X      t a U H.L.K.W.W.].oXoXoXoXoX).W.W.L.L.N.a a 8     8X8X8X8X8X8X8X8X8X8X8X8X",
"8X8X8X8X8X8X8X8X8X8X          7 B.Z.L.:X:X:X:X:X:X:X:X:X:X:XZ.Z.e.          8X8X8X8X8X8X8X8X8X8X8X8X",
"8X8X8X8X8X8X8X8X8X8X2 , , 3 5 0 i.C.J.%X%X=X-X-X-X-X-X&X%X%XC.C.w.5 6 4 , , 8X8X8X8X8X8X8X8X8X8X8X8X",
"8X8X8X8X8X8X8X8X    F.OXOX,X<X(.~ E X.p.p.V.S.S.S.S.S.M.p.p.E E 4.<X1X;XOXOXf.    8X8X8X8X8X8X8X8X8X",
"8X8X8X8X8X8X8X#     G.:X:X6X7X2XY g W q.q.u.Z.Z.Z.Z.Z.t.q.q.g g 6.7X7X4X:X:Xk.    8X8X8X8X8X8X8X8X8X",
"8X8X8X8X8X8X8X*     G.:X:X6X7X3XT g W q.q.u.Z.Z.Z.Z.Z.t.q.q.g g 6.7X7X5X:X:Xk.    8X8X8X8X8X8X8X8X8X",
"8X8X8X8X8Xo O x.:X:XP.Z.Z.q   - f g W q.q.~.7X7X7X7X7Xb.q.q.g g u     Q Z.Z.'.:X:X] o . 8X8X8X8X8X8X",
"8X8X8X8X8X    z.:X:XP.Z.Z.q   % f g W q.q./.7X7X7X7X7XA.q.q.g g u     Q Z.Z.'.:X:X'     8X8X8X8X8X8X",
"8X8X8X8X8X    z.:X:XI.D.D.w   ; I R / q.q./.7X7X7X7X7XA.q.q.R R d     | D.D.[.:X:X'     8X8X8X8X8X8X",
"8X8X8X8X8X    z.:X:X:X:X:XM   1 0.q.q.q.q./.7X7X7X7X7XA.q.q.q.q...    a.:X:X:X:X:X'     8X8X8X8X8X8X",
"8X8X8X8X8X    z.:X:X:X:X:XM   1 0.q.q.q.q./.7X7X7X7X7XA.q.q.q.q...    a.:X:X:X:X:X'     8X8X8X8X8X8X",
"8X8X8X8X8X# @ d.W.W.W.W.W.e   > ^ ( O.2.1.^.>X>X>X>X>Xv.1.<.( ( P     o.W.W.W.W.W.` @ + 8X8X8X8X8X8X",
"8X8X8X8X8X8X8X#                     l U.U.T.R.R.R.R.R.Y.U.U.                      8X8X8X8X8X8X8X8X8X",
"8X8X8X8X8X8X8X@                     l U.U.T.R.R.R.R.R.Y.U.U.                      8X8X8X8X8X8X8X8X8X",
"8X8X8X8X8X8X8X8X8X8X8X8X8Xo   : ! } +.c.c.7._ _ _ _ _ 9.c.c.} } L     o 8X8X8X8X8X8X8X8X8X8X8X8X8X8X",
"8X8X8X8X8X8X8X8X8X8X8X8X8Xo   7 B.Z.Z.Z.Z.}           r.Z.Z.Z.Z.e.    8X8X8X8X8X8X8X8X8X8X8X8X8X8X8X",
"8X8X8X8X8X8X8X8X8X8X8X8X8Xo   7 B.Z.Z.Z.Z.}           r.Z.Z.Z.Z.e.    8X8X8X8X8X8X8X8X8X8X8X8X8X8X8X",
"8X8X8X8X8X8X8X8X8X8X8X8X8X8X8X8Xs a a a a y 8X8X8X8X8Xp a a a a i 8X8X8X8X8X8X8X8X8X8X8X8X8X8X8X8X8X",
"8X8X8X8X8X8X8X8X8X8X8X8X8X8X8X8Xo         8X8X8X8X8X8X          o 8X8X8X8X8X8X8X8X8X8X8X8X8X8X8X8X8X",
"8X8X8X8X8X8X8X8X8X8X8X8X8X8X8X8Xo         8X8X8X8X8X8XX         o 8X8X8X8X8X8X8X8X8X8X8X8X8X8X8X8X8X",
"8X8X8X8X8X8X8X8X8X8X8X8X8X8X8X8X8X8X8X8X8X8X8X8X8X8X8X8X8X8X8X8X8X8X8X8X8X8X8X8X8X8X8X8X8X8X8X8X8X8X",
"8X8X8X8X8X8X8X8X8X8X8X8X8X8X8X8X8X8X8X8X8X8X8X8X8X8X8X8X8X8X8X8X8X8X8X8X8X8X8X8X8X8X8X8X8X8X8X8X8X8X",
"8X8X8X8X8X8X8X8X8X8X8X8X8X8X8X8X8X8X8X8X8X8X8X8X8X8X8X8X8X8X8X8X8X8X8X8X8X8X8X8X8X8X8X8X8X8X8X8X8X8X"
};
