/* XPM */
static char *result[] = {
/* columns rows colors chars-per-pixel */
"50 50 178 2 ",
"   c #14182E",
".  c #171B31",
"X  c #171B32",
"o  c #181C32",
"O  c #191D32",
"+  c #1A1D33",
"@  c #1A1E33",
"#  c #1A1D34",
"$  c #1A1E34",
"%  c #1B1E34",
"&  c #1B1F34",
"*  c #1A1E36",
"=  c #1A1F36",
"-  c #211E32",
";  c #221F32",
":  c #192339",
">  c #1D2139",
",  c #19243A",
"<  c #1C243A",
"1  c #1F233C",
"2  c #1A273D",
"3  c #292235",
"4  c #2C2235",
"5  c #282638",
"6  c #332537",
"7  c #302637",
"8  c #362738",
"9  c #382738",
"0  c #392939",
"q  c #38313F",
"w  c #482E3C",
"e  c #4D333F",
"r  c #52323F",
"t  c #222740",
"y  c #252A43",
"u  c #262A44",
"i  c #282C40",
"p  c #2B2B45",
"a  c #2D2E48",
"s  c #2B304B",
"d  c #2D324E",
"f  c #2E334F",
"g  c #3B3441",
"h  c #313552",
"j  c #313652",
"k  c #333855",
"l  c #3A3E51",
"z  c #353A58",
"x  c #363B58",
"c  c #373C5A",
"v  c #373C5B",
"b  c #393D5C",
"n  c #393E5D",
"m  c #3A3F5E",
"M  c #4F3641",
"N  c #443843",
"B  c #523343",
"V  c #593542",
"C  c #593645",
"Z  c #593A44",
"A  c #553949",
"S  c #623E46",
"D  c #3F425E",
"F  c #4F424B",
"G  c #4F434B",
"H  c #534854",
"J  c #50465F",
"K  c #51495A",
"L  c #654148",
"P  c #65484E",
"I  c #7A474C",
"U  c #7F4C4F",
"Y  c #614E53",
"T  c #625154",
"R  c #665458",
"E  c #6A5658",
"W  c #6C5859",
"Q  c #424461",
"!  c #494963",
"~  c #4F4D65",
"^  c #514760",
"/  c #534F66",
"(  c #4F5262",
")  c #5A5468",
"_  c #5B5569",
"`  c #5C5E6D",
"'  c #635460",
"]  c #695760",
"[  c #685C63",
"{  c #6C5E69",
"}  c #725D64",
"|  c #6C606F",
" . c #7E6361",
".. c #7C656F",
"X. c #606374",
"o. c #696B7C",
"O. c #726471",
"+. c #7B6A74",
"@. c #7E6C75",
"#. c #824B4F",
"$. c #804652",
"%. c #834853",
"&. c #884E51",
"*. c #884A54",
"=. c #8F4D57",
"-. c #935555",
";. c #965756",
":. c #985856",
">. c #995957",
",. c #9E5B58",
"<. c #A25C59",
"1. c #A9605C",
"2. c #AC615C",
"3. c #AC625D",
"4. c #B0635E",
"5. c #B0645F",
"6. c #965963",
"7. c #806663",
"8. c #847077",
"9. c #847178",
"0. c #907272",
"q. c #9B7B76",
"w. c #A86965",
"e. c #BE6A62",
"r. c #B46D68",
"t. c #B56F69",
"y. c #C47167",
"u. c #9C8078",
"i. c #AF827C",
"p. c #B18A7B",
"a. c #CF8072",
"s. c #CE8E7F",
"d. c #D98F7D",
"f. c #397085",
"g. c #3B758A",
"h. c #537F92",
"j. c #7A7C8B",
"k. c #7C7E8C",
"l. c #568092",
"z. c #528FA1",
"x. c #5F8FA0",
"c. c #4893A7",
"v. c #4A98AD",
"b. c #579FB1",
"n. c #589FB1",
"m. c #6192A3",
"M. c #4FA4B8",
"N. c #73B3C4",
"B. c #80828D",
"V. c #9D8180",
"C. c #AD8C85",
"Z. c #BB9283",
"A. c #B89185",
"S. c #9B9DAA",
"D. c #9C9EAA",
"F. c #C49884",
"G. c #CA9A86",
"H. c #CA9D8A",
"J. c #DC9380",
"K. c #D49E89",
"L. c #CEA291",
"P. c #EBAA90",
"I. c #EFAC91",
"U. c #EFAC92",
"Y. c #E7B299",
"T. c #ECB498",
"R. c #EDB69B",
"E. c #EFB79C",
"W. c #F0B79A",
"Q. c #F6B598",
"!. c #F7BD9E",
"~. c #FABB9C",
"^. c #FCBE9E",
"/. c #FFC2A1",
"(. c #F3CEBC",
"). c #DFE0E8",
"_. c #ECECEC",
"`. c None",
/* pixels */
"`.`.`.`.`.`.`.`.`.`.`.`.`.`.`.`.`.`.`.`.`.`.`.`.`.`.`.`.`.`.`.`.`.`.`.`.`.`.`.`.`.`.`.`.`.`.`.`.`.`.",
"`.`.`.`.`.`.`.`.`.`.`.`.`.`.`.`.`.`.`.`.`.`.`.`.`.`.`.`.`.`.`.`.`.`.`.`.`.`.`.`.`.`.`.`.`.`.`.`.`.`.",
"`.`.`.`.`.`.`.`.`.`.`.`.`.`.`.`.`.`.O O o o o o o o o o o o O O O O `.`.`.`.`.`.`.`.`.`.`.`.`.`.`.`.",
"`.`.`.`.`.`.`.`.`.`.`.`.`.`.`.`.`.                                  `.`.`.`.`.`.`.`.`.`.`.`.`.`.`.`.",
"`.`.`.`.`.`.`.`.`.`.`.`.`.`.`.`.`.                                  `.`.`.`.`.`.`.`.`.`.`.`.`.`.`.`.",
"`.`.`.`.`.`.`.`.`.`.`.`.`.`.`.    s x x x x x x x x x x x x x x x x *     `.`.`.`.`.`.`.`.`.`.`.`.`.",
"`.`.`.`.`.`.`.`.`.`.`.`.`.`.`.    d m m m m m m m m m m m m m m m m =     `.`.`.`.`.`.`.`.`.`.`.`.`.",
"`.`.`.`.`.`.`.`.`.`.`.`.`.`.`.X X f m m m m m m m m m m m m m m m m > X X `.`.`.`.`.`.`.`.`.`.`.`.`.",
"`.`.`.`.`.`.`.`.`.`.`.`.    y c c n m m m m m m m m m m m m m m m m v c k X   @ `.`.`.`.`.`.`.`.`.`.",
"`.`.`.`.`.`.`.`.`.`.`.`.    u m m m m m m m m m m m m m m m m m m m m m z X   @ `.`.`.`.`.`.`.`.`.`.",
"`.`.`.`.`.`.`.`.`.`.`.`.    u m m m m m m m m m m m m m m m m m m m m m z X   % `.`.`.`.`.`.`.`.`.`.",
"`.`.`.`.`.`.`.`.`.`.`.`.    u m m m m m m m m m m m m m m m m m m m m m z X   % `.`.`.`.`.`.`.`.`.`.",
"`.`.`.`.`.`.`.`.`.`.`.`.    u m m m m m m m m m m m m m m m m m m m m m z X   & `.`.`.`.`.`.`.`.`.`.",
"`.`.`.`.`.`.`.`.`.`.`.`.    u m m m m m @.9.+.Q m m m m m m m m m m m m z X   & `.`.`.`.`.`.`.`.`.`.",
"`.`.`.`.`.`.`.`.`.`.`.`.    u m m m m m E./.Y.~ m m m m m m m m m m m m z X   & `.`.`.`.`.`.`.`.`.`.",
"`.`.`.`.`.`.`.`.`.`.`.`.    u m m m m m E./.Y.~ m m m m m m m m m m m m z X   & `.`.`.`.`.`.`.`.`.`.",
"`.`.`.`.`.`.`.`.`.`.`.`.    H V.V.V.V.V.!./.Y.~ m m m m m m m m m m m m z X   & `.`.`.`.`.`.`.`.`.`.",
"`.`.`.`.`.`.`.`.`.`.`.`.    7./././././././.Y.~ m m m m m m m m m m m m z X   % `.`.`.`.`.`.`.`.`.`.",
"`.`.`.`.`.`.`.`.`.`.`.`.    7./././././././.Y.~ m m m m m m m m m m m m z X   $ `.`.`.`.`.`.`.`.`.`.",
"`.`.`.`.`.`.`.`.`.`.`.`.    7././.q.] ] ] ] ' D m m m m m m m m m m m m z X   @ `.`.`.`.`.`.`.`.`.`.",
"`.`.`.`.`.`.`.`.`.`.`.`.    7././.} p p p p a b m m m m m m m m m m m m z X   @ `.`.`.`.`.`.`.`.`.`.",
"`.`.`.`.`.`.`.`.`.`.`.`.    7././.} p p p p a b m m m m m m m m m m m m z X   + `.`.`.`.`.`.`.`.`.`.",
"`.`.`.`.`.`.`.`.`.`.`.`.    7././.R # # Z.H.A.! m / L.L.L.L.L.O.m m m m z X   O `.`.`.`.`.`.`.`.`.`.",
"`.`.`.`.`.`.`.`.`.`.`.`.    7././.T     T./.Y.~ m _ /././././.8.m m m m z X   O `.`.`.`.`.`.`.`.`.`.",
"`.`.`.`.`.`.`.`.`.`.`.`.     .~.~.Y     T./.Y.~ m ) ~.~.^././.8.m m v c k X   @ `.`.`.`.`.`.`.`.`.`.",
"`.`.`.`.`.`.`.`.`.`.`.`.    L y.y.M     T./.Y.~ m ^ y.y.J././.8.m m > X X `.`.`.`.`.`.`.`.`.`.`.`.`.",
"`.`.`.`.`.`.`.`.`.`.`.`.    S e.e.e     T./.Y.~ m J e.e.d././.8.m m =     `.`.`.`.`.`.`.`.`.`.`.`.`.",
"`.`.`.`.`.`.`.`.`.`.`.`.    Z ;.:.P F G W./.R.+.| ..a.a.s.L.L.{ j j *     `.`.`.`.`.`.`.`.`.`.`.`.`.",
"`.`.`.`.`.`.`.`.`.`.`.`.`.`.`.    p././././././././././.C.m m t     `.`.`.`.`.`.`.`.`.`.`.`.`.`.`.`.",
"`.`.`.`.`.`.`.`.`.`.`.`.`.`.`.    p././././././././././.C.m m t     `.`.`.`.`.`.`.`.`.`.`.`.`.`.`.`.",
"`.`.`.`.`.`.`.`.`.`.`.`.`.`.`.( ( u.F.F.F.F.G.P.I.P.K.K.0.h h 1     `.`.`.`.`.`.`.`.`.`.`.`.`.`.`.`.",
"`.`.`.`.`.`.`.`.`.`.`.`.`.`.`._._.`         3 3.e.2.r r 9           `.`.`.`.`.`.`.`.`.`.`.`.`.`.`.`.",
"`.`.`.`.`.`.`.`.`.`.`.`.`.`.`._._.`         3 3.e.2.r r 9           `.`.`.`.`.`.`.`.`.`.`.`.`.`.`.`.",
"`.`.`.`.`.`.`.`.`.`.`.`.`.`.`.B.B.k.j.j.A B C #.&.I 6 6 K j.j.l     `.`.`.`.`.`.`.`.`.`.`.`.`.`.`.`.",
"`.`.`.`.`.`.`.`.`.`.`.`.`.`.`.    D.).).6.=.*.V r w     o.).).X.    `.`.`.`.`.`.`.`.`.`.`.`.`.`.`.`.",
"`.`.`.`.`.`.`.`.`.`.`.`.`.`.`.    S.).).6.=.*.V r w     o.).).X.    `.`.`.`.`.`.`.`.`.`.`.`.`.`.`.`.",
"`.`.`.`.`.`.`.`.`.`.`.`.`.`.`.    S.).).6.=.%.8 4 0 U U i.(.(.[     `.`.`.`.`.`.`.`.`.`.`.`.`.`.`.`.",
"`.`.`.`.`.`.`.`.`.`.`.`.`.`.`.    S.).).6.=.$.-   7 e.e.d././.W     `.`.`.`.`.`.`.`.`.`.`.`.`.`.`.`.",
"`.`.`.`.`.`.`.`.`.`.`.`.`.`.`.    S.).).6.=.$.-   7 e.e.d././.W     `.`.`.`.`.`.`.`.`.`.`.`.`.`.`.`.",
"`.`.`.`.`.`.`.`.`.`.`.`.`.`.`.    h.N.N.m.x.l.<   q U.U.Q././.W     `.`.`.`.`.`.`.`.`.`.`.`.`.`.`.`.",
"`.`.`.`.`.`.`.`.`.`.`.`.`.`.`.    g.M.M.M.M.c.2   g /././././.W     `.`.`.`.`.`.`.`.`.`.`.`.`.`.`.`.",
"`.`.`.`.`.`.`.`.`.`.`.`.`.`.`.    f.v.v.b.n.z.i ; N T.T.T.T.T.E     `.`.`.`.`.`.`.`.`.`.`.`.`.`.`.`.",
"`.`.`.`.`.`.`.`.`.`.`.`.`.`.`.`.`.: , , w.t.r.5.4.>.5 5 5 5 5 `.`.`.`.`.`.`.`.`.`.`.`.`.`.`.`.`.`.`.",
"`.`.`.`.`.`.`.`.`.`.`.`.`.`.`.`.`.      4.e.e.e.e.<.          `.`.`.`.`.`.`.`.`.`.`.`.`.`.`.`.`.`.`.",
"`.`.`.`.`.`.`.`.`.`.`.`.`.`.`.`.`.      ,.1.1.1.1.-.          `.`.`.`.`.`.`.`.`.`.`.`.`.`.`.`.`.`.`.",
"`.`.`.`.`.`.`.`.`.`.`.`.`.`.`.`.`.`.`.`.            `.`.`.`.`.`.`.`.`.`.`.`.`.`.`.`.`.`.`.`.`.`.`.`.",
"`.`.`.`.`.`.`.`.`.`.`.`.`.`.`.`.`.`.`.`.            `.`.`.`.`.`.`.`.`.`.`.`.`.`.`.`.`.`.`.`.`.`.`.`.",
"`.`.`.`.`.`.`.`.`.`.`.`.`.`.`.`.`.`.`.`.. . . . . . `.`.`.`.`.`.`.`.`.`.`.`.`.`.`.`.`.`.`.`.`.`.`.`.",
"`.`.`.`.`.`.`.`.`.`.`.`.`.`.`.`.`.`.`.`.`.`.`.`.`.`.`.`.`.`.`.`.`.`.`.`.`.`.`.`.`.`.`.`.`.`.`.`.`.`.",
"`.`.`.`.`.`.`.`.`.`.`.`.`.`.`.`.`.`.`.`.`.`.`.`.`.`.`.`.`.`.`.`.`.`.`.`.`.`.`.`.`.`.`.`.`.`.`.`.`.`."
};
