/* XPM */
static char *result[] = {
/* columns rows colors chars-per-pixel */
"50 50 211 2 ",
"   c #010101",
".  c #080708",
"X  c #0C0B0C",
"o  c #080707",
"O  c #100F0F",
"+  c #141313",
"@  c #181717",
"#  c #1E1C1D",
"$  c #100F10",
"%  c #201E1F",
"&  c #221E0B",
"*  c #2A250E",
"=  c #322C12",
"-  c #3A3416",
";  c #2A2610",
":  c #252324",
">  c #2C2A2A",
",  c #292727",
"<  c #312E2F",
"1  c #343233",
"2  c #393637",
"3  c #393738",
"4  c #3D3A3B",
"5  c #761A0E",
"6  c #463F1A",
"7  c #413E3F",
"8  c #443D23",
"9  c #7A3317",
"0  c #53491C",
"q  c #625519",
"w  c #6B5D1D",
"e  c #6F611F",
"r  c #71621F",
"t  c #5E5428",
"y  c #50482E",
"u  c #64592D",
"i  c #6B5F2B",
"p  c #655926",
"a  c #6E6023",
"s  c #6E612A",
"d  c #746522",
"f  c #776924",
"g  c #7B6B24",
"h  c #7B6D2C",
"j  c #746729",
"k  c #766A3A",
"l  c #6E6338",
"z  c #423F40",
"x  c #454243",
"c  c #484546",
"v  c #4D4B4D",
"b  c #494748",
"n  c #504E4F",
"m  c #514E50",
"M  c #766C42",
"N  c #7D7245",
"B  c #7C7454",
"V  c #5F5C61",
"C  c #615E63",
"Z  c #666369",
"A  c #69666C",
"S  c #676469",
"D  c #6F6C72",
"F  c #716F74",
"G  c #747176",
"H  c #79777C",
"J  c #7C797E",
"K  c #777479",
"L  c #7E7864",
"P  c #8C1B11",
"I  c #811C10",
"U  c #941C12",
"Y  c #9D1F14",
"T  c #A01F14",
"R  c #8A2313",
"E  c #932314",
"W  c #9C2917",
"Q  c #8A381A",
"!  c #9A361A",
"~  c #A42115",
"^  c #AB2217",
"/  c #AD2518",
"(  c #A52A18",
")  c #AB2A18",
"_  c #B42518",
"`  c #BC271A",
"'  c #BE2A1B",
"]  c #B22F1B",
"[  c #A7371C",
"{  c #B8351D",
"}  c #BF3B20",
"|  c #C4291C",
" . c #CB2C1D",
".. c #D42D1F",
"X. c #D82E1F",
"o. c #C1311D",
"O. c #DA2F20",
"+. c #E53222",
"@. c #8D4B1F",
"#. c #96471E",
"$. c #81561F",
"%. c #A9431F",
"&. c #9D4C22",
"*. c #964922",
"=. c #8A5A23",
"-. c #9C5425",
";. c #945D25",
":. c #985723",
">. c #854F22",
",. c #A44721",
"<. c #A25625",
"1. c #B54622",
"2. c #856423",
"3. c #9B6B29",
"4. c #946A28",
"5. c #827126",
"6. c #867428",
"7. c #8A7529",
"8. c #8D7B2C",
"9. c #917E2E",
"0. c #9A7D2F",
"q. c #97762C",
"w. c #8D7D30",
"e. c #A5662C",
"r. c #AA7C33",
"t. c #A67631",
"y. c #A6732F",
"u. c #83774A",
"i. c #867C50",
"p. c #94822F",
"a. c #9A872F",
"s. c #958331",
"d. c #9A8531",
"f. c #9D8A33",
"g. c #AC8436",
"h. c #A18E35",
"j. c #AA8B37",
"k. c #AC8D38",
"l. c #A38434",
"z. c #A59137",
"x. c #AA9637",
"c. c #AC9A37",
"v. c #A69339",
"b. c #A99539",
"n. c #AD993B",
"m. c #B29D3D",
"M. c #B99C3E",
"N. c #B28537",
"B. c #B5A23C",
"V. c #BBA43E",
"C. c #B9A93A",
"Z. c #BFB03F",
"A. c #C0AE3F",
"S. c #C3B93E",
"D. c #CAC03E",
"F. c #B29E40",
"G. c #B6A241",
"H. c #BAA543",
"J. c #BEA943",
"K. c #8B856B",
"L. c #8D897A",
"P. c #C3AE44",
"I. c #C4AF48",
"U. c #C5B343",
"Y. c #C6B149",
"T. c #CAB746",
"R. c #D1BC49",
"E. c #D4BE50",
"W. c #D3C149",
"Q. c #D9C649",
"!. c #DCCB4A",
"~. c #D4C346",
"^. c #D7C151",
"/. c #DEC953",
"(. c #DCC653",
"). c #DCD04C",
"_. c #E3D34A",
"`. c #E8DB4D",
"'. c #F1DF4F",
"]. c #E2CC55",
"[. c #EAD553",
"{. c #EDDB53",
"}. c #E5D153",
"|. c #EAD74D",
" X c #F5E44F",
".X c #F9E94F",
"XX c #F2E452",
"oX c #FAEC50",
"OX c #F4EB51",
"+X c #FCF252",
"@X c #FEF953",
"#X c #7E7C81",
"$X c #807E83",
"%X c #878589",
"&X c #999686",
"*X c #8E8C91",
"=X c #908F94",
"-X c #9B9A9E",
";X c #989698",
":X c #928F80",
">X c #A09E95",
",X c #A5A39C",
"<X c #9E9CA1",
"1X c #A09FA3",
"2X c #A7A6A8",
"3X c #AEADB1",
"4X c #B0AFB2",
"5X c #B3B3B5",
"6X c #B9B9B9",
"7X c #B8B7B8",
"8X c #B1B0AF",
/* pixels */
"= ;                                                                                       * - s F.n.",
"B.G.k s 0                                                                           = t j v.Y.E.`.J.",
"J.`./.^.G.F.8.0                                                                 f z.m.J.Y.E./.].OXD.",
"D.+X[.].E.T.I.G.n.w.t = &                                             ; = j h.H.Y.R.E.].}.[.{. X+XD.",
"T.oXXX{.[.}.].(.^.R.J.G.f.j p *                                   * d n.I.T.^.(.}.[.{.XX X.X+X@XOX~.",
"Z.oX+X+X+XoX XXX'.{.}.}.(.E.Y.J.g                                 - T.].}.{. XXXoXoX+XOXOXXX{./.W.G.",
"B./.}.{.XXXXoX@X+XoX.X X'.{.[.!.w.                                - ). XoX+X+X X`.!.R.U.I.H.G.m.F.F.",
"v.m.v.F.H.I.I.T.Q.{.+X@X+X+XoX Xf.                                - `.XX_.E.I.H.m.b.v.b.v.b.b.v.n.m.",
"v.m.v.v.x.z.x.b.m.B.H.U.R.).`._.s.                                = z.m.m.n.x.b.b.b.x.z.z.C.Z.S.n.F.",
"n.F.Z.Z.m.x.x.z.b.v.b.b.n.c.m.m.f         o                   o   * h.z.b.z.h.h.d.p.h.z.h.U.Q.'.n.F.",
"v.n._.).R.z.z.h.q.9.f.f.h.x.n.z.a o o o o   o   o   o   .     o   = h.U.B.$.#.#.[ ( :.f.h.d.m.`.v.v.",
"f.n._.C.f.f.h.4.! ! #.*.>.x.R.x.a o . . . . o . o o o o . .   . o = f.B.U.E X.....X. .;.h.f.h.W.n.h.",
"s.n.Q.x.f.z.4.] +.+.+...Y M.P.a.e X X X X X X O X X X X . X . X . = f.n.U.( X._ _ X.~ m.f.h.d.b.b.v.",
"s.n.n.f.z.f.r.{ X.| ` X._ M.C.f.a O + + + $ $ $ $ $ $ $ $ $ $ $ X - f.n.P.~ _ T _ { N.v.h.h.z.d.v.s.",
"w.v.f.z.f.h.z.N.` ` T _ _ A.M.d.a @ + @ @ @ @ @ + @ @ @ + + + + + 6 f.z.P.E T Y ^ e.n.f.f.4.f.x.h.a ",
"w f.v.f.4.d.h.z.e.) Y T U M.m.a.a % % % % % # % % # # # # # # # @ 8 f.x.P.R T Y <.j.d.h.:. .#.f.h.e ",
"q f.z.4.o.;.h.d.k.&.W Y U H.n.f.a , : : : , : : : : : : : : % : % y s.c.J.E / W j.h.h.3.{ X._ 7.z.e ",
"q f.8.( +.{ q.h.h.g.Y ~ Y M.B.f.a > > > > > > > > > : > > > > : : y a.v.J.W / e.z.h.f.[  . .` 6.z.w ",
"q f.8.[ .. .%.d.h.z.<./ T M.n.f.d < < < < < < < < < < > < > < < > y f.z.H.E [ j.h.f.:. ._ | ` 5.h.w ",
"q f.8.]  ._ | :.f.h.j.[ Y M.x.f.s 1 1 2 1 1 1 1 1 1 1 1 1 1 < 1 1 y f.a.G.Q r.h.f.:. ._ ~  ._ 5.z.w ",
"q f.8.[  .T _  .-.h.h.r.R M.h.f.s 3 3 3 3 3 3 3 3 3 3 3 3 3 3 3 2 y f.p.b.r.z.f.3.o.| T _ ..[ 8.x.f ",
"q f.9.! X._ T | { 3.h.v.y.n.f.f.a 4 4 4 4 3 4 3 4 4 3 3 3 3 3 3 4 t f.f.c.n.h.d.{ | T T _ [ g.x.z.f.",
"h h.x.g.] ` T T  .[ f.h.c.f.6.d.s 4 4 4 4 4 4 4 4 4 3 4 4 3 3 3 4 t a.a.T.f.h.:.X.X.^ | T y.k.z.x.n.",
"d.m.z.n.e.~ _ ~ |  .;.f.z.C.B.p.a 7 7 4 4 y 4 7 4 4 4 7 7 7 7 7 4 u 8.C.S.Z.d.Q E U U E &.x.m.!.b.F.",
"d.x.S.c.n.,.~ Y T ^ Q 0.m.U.m.p.i 7 7 z z 7 z 7 7 7 7 7 7 7 4 7 4 u 5.Q.T.D.d.k.r.t.e.e.g.x.T.oXb.G.",
"s.n._.R.m.k.:.&.-.e.y.f.A.S._.6.i 7 7 z 7 7 7 7 7 7 7 7 7 7 7 7 z u 5.T.J.S.9.f.h.h.b.b.x.V.P..Xv.G.",
"s.n._.R.H.b.m.m.m.n.b.d.C.Z.Q.5.i z z z z z z z z z z z 7 7 z 7 4 u 5.b.h.m.p.f.h.h.f.f.f.z.x. Xb.G.",
"s.n.).m.n.f.d.9.9.9.d.9.x.m.I.5.i z z z z z z z z z z z z z z z 7 u p.a d d.9.7.6.8.p.f.z.d.z.|.x.G.",
"0.c.!.m.f.f.f.f.d.p.9.d.d.6.9.6.i x z z z z z z z z z z z z z z z u s.w 6.g l.Q ) [ ! @.9.h.d._.x.H.",
"d.c.Q.x.d.l.4.@.#.! @.d.g 6.q 9.i x x x c z z c z c z z z z z z z u f.i g p.z.e.| X.X. .-.z.d.!.n.H.",
"s.n.S.h.z.:.' ..O.X.<.z.s.5.g d.i x x c z z z c z c z z z z z z y u h.Z.m.q.h.n.,._ _ '  .3.v.9.v.H.",
"9.n.h.z.0.{  ._ ' ( k.h.d.d.h.z.i c x c c c c z c z c z c c z c x u f.Z.T.9 0.h.r.( ~ ~ ' [ d.v.b.H.",
"s.n.b.h.,. .~ ~ ~ e.v.f.>.U.~.h.s b b b c c c x c c x x x x c x x u h.c.U.E <.h.j.&._ T T ..#.z.b.H.",
"s.n.z.3. .T ~ / ,.k.f.3.R P.B.f.s v n n v v v v v v v v v v b v v u h.c.U.~ { d.h.g.W _ T | ] q.z.m.",
"w.v.s.[ | T T T y.h.0.1.T U.c.f.k Z Z Z Z Z V Z C C V C V V V V V l f.c.P.W  .<.h.z.y.~ T ` ` 2.z.p.",
"a f.8.] .._ T 3.b.j.<. .~ U.c.f.k A A A A A Z A A A Z Z Z Z Z Z S l f.x.P.E / | q.f.n.<./  .| 2.z.f ",
"q f.8.] X.T ,.n.f.0.' ` U P.c.h.k H K K G G F F G F F F F D D D D k f.x.P.R T ` ,.f.h.k.! | | =.z.f ",
"q f.8.]  .W r.z.f.-. .T P I.c.d.k #X$X#X#X#X#X#XJ H H H H H H K H k f.b.I.R T T o.3.l.z.e.T T 2.z.g ",
"q f.8.! ~ <.j.f.q.o.T T P P.x.h.N %X$X%X%X$X$X$X$X#X#XJ #XH J H H k f.b.P.E T T ` 1.h.d.j.! &.0.z.g ",
"q f.h.r.Q k.h.h.<.' T T P P.x.f.N =X;X;X=X=X=X*X=X=X*X*X=X*X*X*X*XN h.h.H.I / T ^  .4.f.h.l.j.b.v.g ",
"q f.x.x.b.z.h.;..._ Y T I H.h.f.u.<X1X<X<X<X<X<X<X<X=X<X;X;X;X;X;XN p.9.H.9 P Y ' O._ 4.f.b.b.B.v.g ",
"q f.U.m.b.f.q.) X.| Y U 5 G.p.s.u.2X2X1X1X1X1X1X<X<X<X<X<X<X<X<X<XN 8.9.f.l.y.#.Y ` U ;.h.z.V.`.B.8.",
"h z._.Q.b.f.3.5 _ U Q t.J.h.9.8.i.3X4X3X4X3X3X3X3X3X3X3X3X3X3X3X3XL w 7.8.9.p.m.g.Q >.n.b.B.W.XXB.v.",
"s.b._.R.J.b.n.t.*.r.b.d.w.8.5.h K.5X4X3X4X4X4X4X3X3X3X3X3X3X3X3X3X3X;XB k g 8.9.f.n.n.b.b.M.V.).B.G.",
"s.x.Q.m.n.h.h.h.h.d.w.7.g i K.>X3X7X7X7X5X7X5X5X5X5X5X5X5X5X5X5X3X4X3X3X;XL.j 5.8.8.p.d.9.d.f.U.m.G.",
"s.x.v.s.6.8.9.8.7.5.k u.:X6X6X6X6X6X7X6X6X6X6X6X6X6X6X6X6X6X6X6X7X7X5X5X6X6X6XL.M f 6.8.8.8.7.9.z.G.",
"s.z.8.8.9.8.6.d s K.,X7X6X6X6X6X6X6X6X6X6X6X6X6X6X6X6X6X6X6X6X6X6X6X5X5X6X6X5X5X2XL.l a 6.8.8.8.d.m.",
"w.d.9.8.6.r t L.6X6X6X7X6X6X6X6X6X6X6X6X6X6X6X6X6X6X6X6X6X6X6X6X6X6X7X7X6X6X7X7X7X5X5X>Xt f 7.8.8.v.",
"8.9.g j N &X6X6X6X7X6X7X6X7X6X6X6X7X6X6X6X6X6X6X6X6X6X6X6X6X6X6X6X6X6X6X6X6X6X6X6X6X6X6X6XK.M d h z.",
"i s &X&X8X6X6X6X6X6X7X6X6X6X6X6X7X6X6X6X6X6X6X6X6X6X6X6X6X6X6X6X6X6X6X6X6X6X6X6X6X6X6X6X6X6X2X&XM g "
};
