/* XPM */
static char *result[] = {
/* columns rows colors chars-per-pixel */
"50 50 140 2 ",
"   c #14182E",
".  c #171B31",
"X  c #171B32",
"o  c #1B1C30",
"O  c #181C32",
"+  c #191C32",
"@  c #191D32",
"#  c #191D33",
"$  c #1A1E33",
"%  c #1F1E32",
"&  c #1E1F33",
"*  c #191D34",
"=  c #1A1F36",
"-  c #1C1F36",
";  c #221F32",
":  c #1E2136",
">  c #1C2038",
",  c #262033",
"<  c #212136",
"1  c #232336",
"2  c #2E2335",
"3  c #222339",
"4  c #202439",
"5  c #25293E",
"6  c #2A293D",
"7  c #332537",
"8  c #382738",
"9  c #46303D",
"0  c #52323F",
"q  c #2B2B45",
"w  c #2B304B",
"e  c #2C314C",
"r  c #2D324D",
"t  c #3B3441",
"y  c #3A3645",
"u  c #30314D",
"i  c #39354B",
"p  c #36394D",
"a  c #2F3450",
"s  c #313652",
"d  c #333755",
"f  c #343956",
"g  c #343957",
"h  c #383D5B",
"j  c #393E5C",
"k  c #3A3F5E",
"l  c #423843",
"z  c #443A45",
"x  c #523343",
"c  c #513541",
"v  c #5B3A44",
"b  c #623B47",
"n  c #653D46",
"m  c #6B3E4B",
"M  c #3B405F",
"N  c #454859",
"B  c #4A4D5E",
"V  c #6E454B",
"C  c #71404D",
"Z  c #77484C",
"A  c #7E4550",
"S  c #72595A",
"D  c #765D5D",
"F  c #765F5E",
"G  c #424561",
"H  c #504C61",
"J  c #504E65",
"K  c #514E66",
"L  c #5B5569",
"P  c #5C5868",
"I  c #685965",
"U  c #685A65",
"Y  c #715160",
"T  c #735462",
"R  c #756169",
"E  c #7B6468",
"W  c #716471",
"Q  c #834E50",
"!  c #884E51",
"~  c #8F4D57",
"^  c #8D5253",
"/  c #915354",
"(  c #945655",
")  c #985B59",
"_  c #9F5B59",
"`  c #A25C59",
"'  c #89646B",
"]  c #836A6B",
"[  c #847077",
"{  c #897479",
"}  c #8C767A",
"|  c #947878",
" . c #BE6A62",
".. c #C47167",
"X. c #C9796D",
"o. c #3E7B90",
"O. c #467185",
"+. c #497A8C",
"@. c #797B87",
"#. c #787988",
"$. c #7A7C8B",
"%. c #7A7D8B",
"&. c #4892A6",
"*. c #4A98AD",
"=. c #4B99AD",
"-. c #5A96A8",
";. c #4C9CB0",
":. c #589FB1",
">. c #4FA4B8",
",. c #62A5B7",
"<. c #67ADBF",
"1. c #67AEC0",
"2. c #80828D",
"3. c #8B8D9B",
"4. c #B89082",
"5. c #BE9482",
"6. c #BE978B",
"7. c #C59885",
"8. c #C69C8E",
"9. c #CA998D",
"0. c #D59785",
"q. c #D19E88",
"w. c #D49E89",
"e. c #E49D87",
"r. c #CFA291",
"t. c #DEAC96",
"y. c #E6A089",
"u. c #E4A68E",
"i. c #EFAC92",
"p. c #ECB498",
"a. c #F4B397",
"s. c #F2B99B",
"d. c #FBBC9D",
"f. c #FFC2A1",
"g. c #F6CBB6",
"h. c #D3D4DD",
"j. c #DCDAE2",
"k. c #DFE0E8",
"l. c #ECECEC",
"z. c None",
/* pixels */
"z.z.z.z.z.z.z.z.z.z.z.z.z.z.z.z.z.z.z.z.z.z.z.z.z.z.z.z.z.z.z.z.z.z.z.z.z.z.z.z.z.z.z.z.z.z.z.z.z.z.",
"z.z.z.z.z.z.z.z.z.z.z.z.z.z.z.z.z.z.z.z.z.z.z.z.z.z.z.z.z.z.z.z.z.z.z.z.z.z.z.z.z.z.z.z.z.z.z.z.z.z.",
"z.z.z.z.z.z.z.z.z.z.z.z.z.z.z.z.z.                            z.z.z.z.z.z.z.z.z.z.z.z.z.z.z.z.z.z.z.",
"z.z.z.z.z.z.z.z.z.z.z.z.z.z.z.z.                                @ z.z.z.z.z.z.z.z.z.z.z.z.z.z.z.z.z.",
"z.z.z.z.z.z.z.z.z.z.z.z.z.z.z.z.                                + z.z.z.z.z.z.z.z.z.z.z.z.z.z.z.z.z.",
"z.z.z.z.z.z.z.z.z.z.z.z.z.    * w e e e e e e e e e e e e e e e r     z.z.z.z.z.z.z.z.z.z.z.z.z.z.z.",
"z.z.z.z.z.z.z.z.z.z.z.z.z.    * j k k k k k k k k k k k k k k k h       z.z.z.z.z.z.z.z.z.z.z.z.z.z.",
"z.z.z.z.z.z.z.z.z.z.z.z.z.    * j k k k k k k k k k k k k k k k h       z.z.z.z.z.z.z.z.z.z.z.z.z.z.",
"z.z.z.z.z.z.z.z.z.z.      a f g k k k k k k k k k k k k k k k k k f f r     z.z.z.z.z.z.z.z.z.z.z.z.",
"z.z.z.z.z.z.z.z.z.z.      f k k k k k k k k k k k k k k k k k k k k k s     z.z.z.z.z.z.z.z.z.z.z.z.",
"z.z.z.z.z.z.z.z.z.z.      f k k k k k k k k k k k k k k k k k k k k k s     z.z.z.z.z.z.z.z.z.z.z.z.",
"z.z.z.z.z.z.z.z.z.z.      f k k k k k k k k k k k k k k k k k k k k k s     z.z.z.z.z.z.z.z.z.z.z.z.",
"z.z.z.z.z.z.z.z.z.z.      f k k k k k k k k k k k k k k k k k k k k k s     z.z.z.z.z.z.z.z.z.z.z.z.",
"z.z.z.z.z.z.z.z.z.z.      f k k k k k k k k k k k k k K L L M k k k k s     z.z.z.z.z.z.z.z.z.z.z.z.",
"z.z.z.z.z.z.z.z.z.z.      f k k k k k k k k k k k k k 8.f.f.G k k k k s     z.z.z.z.z.z.z.z.z.z.z.z.",
"z.z.z.z.z.z.z.z.z.z.      f k k k k k k k k k k k k k 8.f.f.G k k k k s     z.z.z.z.z.z.z.z.z.z.z.z.",
"z.z.z.z.z.z.z.z.z.z.      f k k k k k k k k k k k k k 8.f.f.{ [ [ [ [ U     z.z.z.z.z.z.z.z.z.z.z.z.",
"z.z.z.z.z.z.z.z.z.z.      f k k k k k k k k k k k k k 8.f.f.f.f.f.f.f.7.    z.z.z.z.z.z.z.z.z.z.z.z.",
"z.z.z.z.z.z.z.z.z.z.      f k k k k k k k k k k k k k 8.f.f.f.f.f.f.f.7.    z.z.z.z.z.z.z.z.z.z.z.z.",
"z.z.z.z.z.z.z.z.z.z.      f k k k k k k k k k k k k k I E E E E ] f.f.7.    z.z.z.z.z.z.z.z.z.z.z.z.",
"z.z.z.z.z.z.z.z.z.z.      f k k k k k k k k k k k k k u q q q q i f.f.7.    z.z.z.z.z.z.z.z.z.z.z.z.",
"z.z.z.z.z.z.z.z.z.z.      f k k k k k k k k k k k k k u q q q q i f.f.7.    z.z.z.z.z.z.z.z.z.z.z.z.",
"z.z.z.z.z.z.z.z.z.z.      f k k k k J 6.6.6.6.6.W k k | 4.4.3 - 6 f.f.7.    z.z.z.z.z.z.z.z.z.z.z.z.",
"z.z.z.z.z.z.z.z.z.z.      f k k k k L f.f.f.f.f.} k k 8.f.f.&   1 f.f.7.    z.z.z.z.z.z.z.z.z.z.z.z.",
"z.z.z.z.z.z.z.z.z.z.      f k k k k L f.f.f.f.f.} k k 8.f.f.&   1 f.f.7.    z.z.z.z.z.z.z.z.z.z.z.z.",
"z.z.z.z.z.z.z.z.z.z.z.z.z.X X > j k L f.f.y.....T k k 8.f.f.&   % ....)     z.z.z.z.z.z.z.z.z.z.z.z.",
"z.z.z.z.z.z.z.z.z.z.z.z.z.    * j k L f.f.e. . .Y k k 8.f.f.&   %  . .(     z.z.z.z.z.z.z.z.z.z.z.z.",
"z.z.z.z.z.z.z.z.z.z.z.z.z.    * d f H t.t.0.X.X.' L L r.f.f.z t l ` ` Q     z.z.z.z.z.z.z.z.z.z.z.z.",
"z.z.z.z.z.z.z.z.z.z.z.z.z.z.z.z.    = k k } f.f.f.f.f.f.f.f.f.f.s.      z.z.z.z.z.z.z.z.z.z.z.z.z.z.",
"z.z.z.z.z.z.z.z.z.z.z.z.z.z.z.z.    = k k } f.f.f.f.f.f.f.f.f.f.s.      z.z.z.z.z.z.z.z.z.z.z.z.z.z.",
"z.z.z.z.z.z.z.z.z.z.z.z.z.z.z.z.    * s s R w.w.u.i.i.q.7.7.7.7.5.B B N z.z.z.z.z.z.z.z.z.z.z.z.z.z.",
"z.z.z.z.z.z.z.z.z.z.z.z.z.z.z.z.          2 0 0 /  . .9         4 l.l.l.z.z.z.z.z.z.z.z.z.z.z.z.z.z.",
"z.z.z.z.z.z.z.z.z.z.z.z.z.z.z.z.          2 0 0 /  . .9         4 l.l.l.z.z.z.z.z.z.z.z.z.z.z.z.z.z.",
"z.z.z.z.z.z.z.z.z.z.z.z.z.z.z.z.    5 $.$.P 7 7 n ! ! b x x #.$.%.2.2.@.z.z.z.z.z.z.z.z.z.z.z.z.z.z.",
"z.z.z.z.z.z.z.z.z.z.z.z.z.z.z.z.    p k.k.3.    8 0 0 A ~ ~ j.k.h.      z.z.z.z.z.z.z.z.z.z.z.z.z.z.",
"z.z.z.z.z.z.z.z.z.z.z.z.z.z.z.z.    p k.k.3.    8 0 0 A ~ ~ j.k.h.      z.z.z.z.z.z.z.z.z.z.z.z.z.z.",
"z.z.z.z.z.z.z.z.z.z.z.z.z.z.z.z.    y g.g.9.^ ^ c , , C ~ ~ j.k.h.      z.z.z.z.z.z.z.z.z.z.z.z.z.z.",
"z.z.z.z.z.z.z.z.z.z.z.z.z.z.z.z.    t f.f.e. . .v     m ~ ~ j.k.h.      z.z.z.z.z.z.z.z.z.z.z.z.z.z.",
"z.z.z.z.z.z.z.z.z.z.z.z.z.z.z.z.    t f.f.e. . .v     m ~ ~ j.k.h.      z.z.z.z.z.z.z.z.z.z.z.z.z.z.",
"z.z.z.z.z.z.z.z.z.z.z.z.z.z.z.z.    t f.f.d.a.a.S     O.-.-.<.1.,.      z.z.z.z.z.z.z.z.z.z.z.z.z.z.",
"z.z.z.z.z.z.z.z.z.z.z.z.z.z.z.z.    t f.f.f.f.f.F     o.>.>.>.>.;.      z.z.z.z.z.z.z.z.z.z.z.z.z.z.",
"z.z.z.z.z.z.z.z.z.z.z.z.z.z.z.z.    t p.p.p.p.p.D ; ; +.:.:.=.*.&.      z.z.z.z.z.z.z.z.z.z.z.z.z.z.",
"z.z.z.z.z.z.z.z.z.z.z.z.z.z.z.z.z.z.z.          Z  . . . . .o   # z.z.z.z.z.z.z.z.z.z.z.z.z.z.z.z.z.",
"z.z.z.z.z.z.z.z.z.z.z.z.z.z.z.z.z.z.z.          Z  . . . . .o   @ z.z.z.z.z.z.z.z.z.z.z.z.z.z.z.z.z.",
"z.z.z.z.z.z.z.z.z.z.z.z.z.z.z.z.z.z.z.. . . . . V _ _ _ _ _ < $ : z.z.z.z.z.z.z.z.z.z.z.z.z.z.z.z.z.",
"z.z.z.z.z.z.z.z.z.z.z.z.z.z.z.z.z.z.z.z.z.z.z.z.            z.z.z.z.z.z.z.z.z.z.z.z.z.z.z.z.z.z.z.z.",
"z.z.z.z.z.z.z.z.z.z.z.z.z.z.z.z.z.z.z.z.z.z.z.z.            z.z.z.z.z.z.z.z.z.z.z.z.z.z.z.z.z.z.z.z.",
"z.z.z.z.z.z.z.z.z.z.z.z.z.z.z.z.z.z.z.z.z.z.z.z.z.@ @ @ @ O z.z.z.z.z.z.z.z.z.z.z.z.z.z.z.z.z.z.z.z.",
"z.z.z.z.z.z.z.z.z.z.z.z.z.z.z.z.z.z.z.z.z.z.z.z.z.z.z.z.z.z.z.z.z.z.z.z.z.z.z.z.z.z.z.z.z.z.z.z.z.z.",
"z.z.z.z.z.z.z.z.z.z.z.z.z.z.z.z.z.z.z.z.z.z.z.z.z.z.z.z.z.z.z.z.z.z.z.z.z.z.z.z.z.z.z.z.z.z.z.z.z.z."
};
