/* XPM */
static char *result[] = {
/* columns rows colors chars-per-pixel */
"50 50 57 1 ",
"  c #403429",
". c #45382D",
"X c #4A3C2F",
"o c #4C3E31",
"O c #4F4133",
"+ c #534435",
"@ c #564837",
"# c #564738",
"$ c #564939",
"% c #5C4C3C",
"& c #5F503D",
"* c #604F3E",
"= c #61513F",
"- c #645241",
"; c #6A5744",
": c #675942",
"> c #6C5946",
", c #6F5B48",
"< c #715D4A",
"1 c #76624C",
"2 c #7A644F",
"3 c #7B694F",
"4 c #776750",
"5 c #7C6650",
"6 c #7E6952",
"7 c #826D54",
"8 c #857355",
"9 c #887757",
"0 c #897857",
"q c #877058",
"w c #8C735A",
"e c #8D7B5B",
"r c #937B5E",
"t c #957F60",
"y c #95845F",
"u c #978261",
"i c #9A8663",
"p c #9D8A64",
"a c #A18E67",
"s c #A28F6B",
"d c #A29067",
"f c #A7956A",
"g c #AD9B6F",
"h c #AD9870",
"j c #B09B72",
"k c #B6A176",
"l c #B9A477",
"z c #B5A279",
"x c #BAA478",
"c c #BEAA7A",
"v c #C2AE7D",
"b c #C5B07F",
"n c #C7B280",
"m c #C9B482",
"M c #CEB886",
"N c #CDB888",
"B c #D0BA87",
/* pixels */
".><<<<<<<<<<<<<<<<<<<<<<<<<<<<<<<<<<<<<<<<<<=7<<<<",
"o0y7q77q7qq7<qu7q77qq777<7yqqqqq7qq77<pww77w7qq77<",
"Oypwwwwwwww7,wfwwwwwwwwq<wfwwwwwwwrw<<ftwwwwwwwr7<",
"@lvffffhfft7<sMffffhffaw7tBfhfffffdw7=Bxhffffffw7<",
"@xvfffffffr7<smfffffffyw<aBffffffffw7,Mxfffffffwq<",
"@kbgjgggggiq<sMgjjggggaw<iBghgggjjhr7<Bvggjjjjgrw<",
"@kMmmmmmnnhy<sMmbMbMbBka7aMbbBbbbbva7=bBbbbbbbbdr<",
"+fkjjjjjjjy7;rxjjjjjjja0,qvjkjjjjjhw7=xkjjkkkjkrw=",
"X77><,,,,<=%o<q<<<,<<<=*o>w,,<<<<<,**Xw7<<<<=7=**o",
".-;-------*%+*>========*o*,======****o<===**===**o",
".-,,<,,<,<,-+*,<<<<<<<,>**,,<<<<<<,<#o<<<<<,7==7=o",
"o7wwwwwwwww2o<wwwwwwwwwq*=wwwwwwwwww*owwwwrwwwww7@",
"owyyruuuuuw5%6yttrtiyirq=<iytrritttw=*tttttttuur7*",
"Owppppupppr5=7pipappiirw>7aipaiatppr7*pitapppppw7=",
"Oydffaufffr7=9dyddfaifyw>7friffapadr=*fppdaidffw7*",
"+yfffaufffr5*9fidffaifiw=7fafffdtadw<*faifapdfhw7*",
"Oyfffdifffw7*0fidffdadtq;7fffffdaadw<*fdadaifffw7-",
"Oiffffffffw7*0fidfffffaw=7fipfffffdw<*ffffdidffw7-",
"Oyffffffffr7*0fpffffdftw;7fpdfffdffr,*ffffdafffr7*",
"Oyfffdifffr7%0fffffdaftw;7fffffdtddw,*fffffffffw7-",
"Oyffffffffr7*wfidfffffa7=7fipfffffdw==ffffdifffw2-",
"Oyffffffffr7*0fpfffddftq=7fddfffdddw7=ffffddfffw7-",
"Oyffffffffr7*0fffffdadtq<8fffffdiddr==hffffffffw7-",
"Oyfgfdpffdw7*0ffffffdfaq=8ffffffdfdw<=ffhfdpdfhw7-",
"Oyffgdpfffr7%wffffffffiq=0ffffffhffw,=ffffdifffw7%",
"Oyffffffffr7%0diffffffiq=8ffffffffdw,*fffffffffw7%",
"Oyffffffffw7*0fdffffffiw=0fgffffffdr,*ffffdaffhw7-",
"Oyfffffffdr7*0ffffffffi7=effffffffdw,*ffffaiffhw7%",
"Oyffffffffr7*0ffffffffiw=8fffgfffffw,=fffffffffw7*",
"Oyffffgfffr7*0ffffffffiw=8ffffffffdw,=fffffffffw7-",
"Oyffffffffr7*0ffffffffi0<8ffgffffhfw,=fffhffsfsw7*",
"Oyfffffppdr7*0fgffffffi0=8ffffffffdw,*ffffffhshw7*",
"Oyfffffddfr3&0ffffffffiw=7fffffffffw,=ffffdffffr5-",
"Oyffffffffr3&0ffffffffiq,7fffffgfffw,*ffdpaffffw7-",
"Oyffffffffy3*0ffffffffiq=7ffffpdffdw,*fffdfffffw7*",
"Opffdfffffy3*0ffffafhfiq=8fdddddffdr,=fffdffffdr7-",
"Oyffddffffr2*0ffffaaffaq<8fppfdffffw,*ffdipffffr7-",
"Oyffddddpfr7*0ffffadfftq=8fddfddfffw,*fffdffddfw5-",
"Oyffddfppfr7*0ffffffffiq=8ffffppfffw,*ffffffpafw7-",
"Oyffddfdffr7*0ffffaaffiq=efppfppfffw,*ffdpaffffw7*",
"Oyffppfpdfr7%0ffffppffiq:6fipfppfffw=*fffidfadfw7-",
"Oiffpdfpifr7*wffffpaffpq>7fipfppfffw7=fhfiffidfw7-",
" o+oooooOOooO+OOo++ooo+o+OOOOO+Oo+o+oo@ooooo+ooo+o",
"X=====******@&=*********@%:**%%=****@@==**==*===%+",
"oyi0wwwwww77*8dwwwqwwwqq-3dwwwqqwwww==ftwwwwwwww5*",
"@gvpddpdppw7*ivdddaaastq>ebdddssadpw<*bkadadddaw7-",
"+jvdffffffr7*dbfffffffiq;yBfffffhfdw=*bxfffffffw6-",
"@vvfffffffr7*dbfffffffi7;yBfffffffdw7=Bxfffffffw7-",
"@vbvvvvvvxaw*aMcccccccht>tNcccccvvvt7*Bbvvxvvxciw-",
"@jBbBMMbMMjt;sNNNNNNNNcd4uNNNNNNMbbh7=MMMMMmNmNhi,"
};
